<?xml version="1.0" encoding="iso-8859-1"?>
<!-- Generator: Adobe Illustrator 21.0.0, SVG Export Plug-In . SVG Version: 6.00 Build 0)  -->
<svg version="1.1" id="Capa_1" xmlns="http://www.w3.org/2000/svg" xmlns:xlink="http://www.w3.org/1999/xlink" x="0px" y="0px"
	 viewBox="0 0 512 512" style="enable-background:new 0 0 512 512;" xml:space="preserve">
<g>
	<g>
		<path d="M297.568,243c-18.406-34.588-40.098-56.776-48.56-95.563c-13.383-61.349-46.659-77.161-64.643-81.186
			C176.757,19.901,123.925,0.86,121.467,0l-9.952,28.307c0.399,0.142,35.326,12.934,42.481,39.727
			c-18.621,6.238-46.329,24.755-58.25,79.403c-8.461,38.786-30.153,60.974-48.56,95.563C14.472,304.473,5.294,394.364,47.26,453.828
			c27.246,38.604,75.618,57.161,123.061,58.151c0.685,0.013,1.37,0.02,2.055,0.021c0.685-0.001,1.37-0.008,2.055-0.021
			c47.442-0.99,95.816-19.547,123.061-58.151C339.46,394.364,330.282,304.473,297.568,243z M237.185,418.1
			c-17.114,20.893-40.13,32.399-64.809,32.399c-24.678,0-47.694-11.506-64.809-32.399c-16.4-20.023-25.433-46.464-25.433-74.455
			c0-27.828,9.05-56.47,24.826-78.583c17.536-24.577,40.768-38.112,65.415-38.112c24.646,0,47.878,13.535,65.415,38.112
			c15.777,22.113,24.826,50.755,24.826,78.583C262.618,371.636,253.585,398.078,237.185,418.1z"/>
	</g>
</g>
<g>
	<g>
		<path d="M172.376,256.955c-30.963,0-60.237,42.13-60.237,86.69c0,42.376,27.022,76.85,60.237,76.85s60.237-34.474,60.237-76.85
			C232.613,299.084,203.339,256.955,172.376,256.955z"/>
	</g>
</g>
<g>
	<g>
		<path d="M464.932,239.001L464.932,239.001c-5.758-10.818-11.715-20.196-17.476-29.263c-11.595-18.251-21.607-34.013-26.412-56.036
			c-10.198-46.746-32.475-68.391-49.365-78.317c-17.284-10.157-32.667-10.57-36.781-10.479c-4.113-0.091-19.495,0.321-36.781,10.479
			c-9.59,5.635-20.913,15.054-30.776,30.694c4.545,10.629,8.224,22.312,10.983,34.961c4.623,21.193,14.26,36.361,26.46,55.566
			c6.317,9.944,12.849,20.226,19.272,32.296c19.048,35.793,30.225,78.182,31.472,119.355c1.431,47.283-10.16,89.771-33.52,122.87
			c-9.204,13.04-20.731,24.677-34.082,34.551c14.161,3.807,29.211,5.973,44.78,6.298c0.724,0.013,1.446,0.021,2.215,0.022
			c0.724-0.001,1.447-0.009,2.208-0.023c53.37-1.114,100.752-23.767,126.746-60.597C508.56,388.066,495.746,296.907,464.932,239.001
			z"/>
	</g>
</g>
<g>
</g>
<g>
</g>
<g>
</g>
<g>
</g>
<g>
</g>
<g>
</g>
<g>
</g>
<g>
</g>
<g>
</g>
<g>
</g>
<g>
</g>
<g>
</g>
<g>
</g>
<g>
</g>
<g>
</g>
</svg>
