<svg xmlns="http://www.w3.org/2000/svg" xmlns:xlink="http://www.w3.org/1999/xlink" id="Layer_1" data-name="Layer 1" version="1.1" viewBox="0 0 129 116.7">
  <defs fill="#000000">
    <style>
      .cls-1 {
        fill: url(#radial-gradient);
      }

      .cls-1, .cls-2 {
        stroke-width: 0px;
      }

      .cls-2 {
        fill: #d8e8b8;
      }
    </style>
    <radialGradient id="radial-gradient" cx="-299.4" cy="939.4" fx="-299.4" fy="939.4" r="150.8" gradientTransform="translate(-1210.1 473.9) rotate(89.8) scale(1.4 -1.4)" gradientUnits="userSpaceOnUse" fill="#000000">
      <stop offset="0" stop-color="#d8df21" fill="#000000"/>
      <stop offset=".2" stop-color="#a4d32b" fill="#000000"/>
      <stop offset=".4" stop-color="#6ac636" fill="#000000"/>
      <stop offset=".6" stop-color="#3cbb3f" fill="#000000"/>
      <stop offset=".8" stop-color="#1bb446" fill="#000000"/>
      <stop offset=".9" stop-color="#07af4a" fill="#000000"/>
      <stop offset="1" stop-color="#00ae4c" fill="#000000"/>
    </radialGradient>
  </defs>
  <path class="cls-1" d="M109.9,52.6l-40.7,44c-1.2,1.3-2.8,2-4.5,2s-3.3-.7-4.5-1.9L19.2,52.9c-2.1-2.2-1.5-4.3-1.2-5.1.4-.8,1.5-2.6,4.5-2.6h14.5c0,0,0-24.7,0-24.7,0-3.5,2.8-6.4,6.3-6.4l42.3-.2c3.5,0,6.4,2.8,6.4,6.4v24.6h14.6c3.1,0,4.2,1.7,4.5,2.5.3.8.9,2.8-1.2,5.1h0Z" fill="#000000"/>
  <path class="cls-2" d="M104.5,50.4l-40.7,44c-.2.2-.4.4-.7.5,1.2.7,2.7.5,3.7-.5l40.7-44c1.2-1.3.7-2.3-1-2.3h-3c1.8,0,2.2,1,1,2.3Z" fill="#000000"/>
  <path class="cls-2" d="M85.7,20.3v24.6c0,1.8,1.5,3.2,3.3,3.2h3c-1.8,0-3.2-1.4-3.2-3.2v-24.6c0-1.8-1.5-3.2-3.3-3.2h-3c1.8,0,3.2,1.4,3.2,3.2h0Z" fill="#000000"/>
</svg>