<?xml version="1.0" encoding="UTF-8"?>
<svg xmlns="http://www.w3.org/2000/svg" xmlns:xlink="http://www.w3.org/1999/xlink" width="32px" height="32px" viewBox="0 0 32 32" version="1.1">
<g id="surface1">
<path style=" stroke:none;fill-rule:nonzero;fill:rgb(100%,60.392157%,24.313725%);fill-opacity:1;" d="M 32 16 C 32 24.835938 24.835938 32 16 32 C 7.164062 32 0 24.835938 0 16 C 0 7.164062 7.164062 0 16 0 C 24.835938 0 32 7.164062 32 16 Z M 32 16 "/>
<path style=" stroke:none;fill-rule:nonzero;fill:rgb(1.176471%,28.627451%,14.509804%);fill-opacity:1;" d="M 15.300781 23 C 15.300781 23 15.199219 23 15.199219 23 C 14.398438 23.199219 13.601562 23.398438 12.699219 23.300781 C 12.199219 23.300781 11.699219 23.199219 11.300781 22.898438 C 11.101562 22.800781 10.898438 22.601562 11 22.398438 C 11 22.199219 11.199219 22 11.398438 21.898438 C 12.199219 21.601562 13 21.300781 13.898438 21.5 C 14.398438 21.5 14.300781 21.5 14.5 21.199219 C 14.601562 20.898438 14.800781 20.601562 14.898438 20.300781 C 15.101562 19.601562 15.101562 19 14.800781 18.300781 C 14.601562 17.800781 14.300781 17.398438 14.101562 16.898438 C 13.800781 16.101562 13.898438 15.300781 14.398438 14.601562 C 14.800781 14 15.199219 13.398438 15.601562 12.800781 C 15.800781 12.5 15.898438 12.199219 16 12 C 16 12 16 11.898438 16 11.699219 C 16 11.898438 16.101562 12 16.199219 12.101562 C 16.5 12.898438 17 13.5 17.5 14.199219 C 17.800781 14.601562 18.101562 15.101562 18.199219 15.601562 C 18.300781 16.199219 18.199219 16.699219 18 17.199219 C 17.800781 17.898438 17.5 18.5 17.300781 19.199219 C 17.199219 19.601562 17.300781 19.898438 17.300781 20.300781 C 17.398438 20.699219 17.601562 21.101562 17.800781 21.398438 C 17.800781 21.5 17.898438 21.5 18 21.5 C 18.5 21.5 19.101562 21.5 19.601562 21.5 C 20 21.5 20.300781 21.5 20.699219 21.699219 C 20.898438 21.699219 21.101562 21.898438 21.300781 22 C 21.5 22.199219 21.5 22.601562 21.300781 22.800781 C 20.898438 23.101562 20.5 23.199219 20.101562 23.300781 C 18.800781 23.601562 17.601562 23.101562 16.5 22.5 C 15.800781 22.101562 15.101562 21.800781 14.300781 21.699219 C 13.5 21.601562 12.800781 21.601562 12 21.898438 C 12 21.898438 11.800781 22 11.800781 22.101562 C 11.5 22.300781 11.5 22.601562 11.800781 22.800781 C 12 22.898438 12.199219 23 12.5 23 C 13.199219 23.199219 13.800781 23 14.5 23 C 14.800781 23 15.101562 23 15.398438 23 C 15.398438 23 15.5 23 15.699219 23 Z M 17.398438 21.699219 C 17.199219 21.300781 17.101562 21 16.898438 20.601562 C 16.800781 20.199219 16.699219 19.800781 16.699219 19.398438 C 16.699219 18.699219 17.101562 18.199219 17.300781 17.601562 C 17.601562 17 17.898438 16.300781 17.601562 15.601562 C 17.601562 15.300781 17.398438 15 17.199219 14.800781 C 16.800781 14.101562 16.300781 13.398438 15.898438 12.800781 C 15.398438 13.601562 14.898438 14.300781 14.398438 15.101562 C 14 15.699219 14 16.398438 14.398438 17.101562 C 14.601562 17.5 14.800781 17.800781 14.898438 18.199219 C 15.199219 18.898438 15.398438 19.5 15.199219 20.300781 C 15.101562 20.699219 14.898438 21.101562 14.699219 21.5 C 14.699219 21.699219 14.699219 21.800781 14.800781 21.800781 C 15 21.800781 15.101562 22 15.300781 22 C 16.300781 22.398438 17.199219 23 18.300781 23.199219 C 19.199219 23.398438 20 23.199219 20.800781 22.898438 C 21.101562 22.800781 21.101562 22.5 20.800781 22.300781 C 20.601562 22.199219 20.398438 22.101562 20.199219 22 C 19.300781 21.800781 18.398438 21.800781 17.5 22 C 17.300781 22 17 22 16.800781 22 C 17 22 17.199219 21.898438 17.398438 21.800781 Z M 17.398438 21.699219 "/>
<path style=" stroke:none;fill-rule:nonzero;fill:rgb(1.176471%,28.627451%,14.509804%);fill-opacity:1;" d="M 20.898438 15.398438 C 20.898438 16.300781 20.199219 17.199219 19.398438 17.398438 C 19.101562 17.398438 18.898438 17.5 18.601562 17.601562 C 18.300781 17.601562 18.199219 17.601562 18.199219 17.199219 C 18.199219 16.800781 18.300781 16.398438 18.5 16.101562 C 18.898438 15.398438 19.601562 15 20.398438 14.898438 C 20.800781 14.898438 20.800781 14.898438 20.800781 15.300781 Z M 18.699219 17.199219 C 19.699219 17.199219 20.601562 16.300781 20.601562 15.398438 C 19.398438 15.699219 18.699219 16.300781 18.699219 17.199219 Z M 18.699219 17.199219 "/>
<path style=" stroke:none;fill-rule:nonzero;fill:rgb(1.176471%,28.627451%,14.509804%);fill-opacity:1;" d="M 11.398438 15 C 12.5 15 13.699219 16 13.601562 17.300781 C 13.601562 17.5 13.601562 17.601562 13.300781 17.601562 C 12.199219 17.601562 11.300781 16.800781 11 15.699219 C 11 15.601562 11 15.398438 11 15.300781 C 11 14.898438 11 14.898438 11.398438 14.898438 Z M 13.300781 17.199219 C 13.300781 16.199219 12.5 15.5 11.398438 15.398438 C 11.398438 16.398438 12.300781 17.300781 13.300781 17.199219 Z M 13.300781 17.199219 "/>
<path style=" stroke:none;fill-rule:nonzero;fill:rgb(1.176471%,28.627451%,14.509804%);fill-opacity:1;" d="M 21.199219 18.898438 C 20.800781 18.898438 20.398438 18.800781 20 18.5 C 19.898438 18.398438 19.898438 18.300781 20 18.199219 C 20.300781 17.699219 21.300781 17.398438 21.800781 17.601562 C 22.101562 17.699219 22.398438 17.898438 22.699219 18 C 22.800781 18 22.800781 18.101562 22.699219 18.300781 C 22.300781 18.800781 21.898438 19 21.199219 19 Z M 22.300781 18.101562 C 21.898438 17.699219 20.699219 17.800781 20.398438 18.300781 C 20.898438 18.699219 21.800781 18.601562 22.300781 18.101562 Z M 22.300781 18.101562 "/>
<path style=" stroke:none;fill-rule:nonzero;fill:rgb(1.176471%,28.627451%,14.509804%);fill-opacity:1;" d="M 10.800781 18.898438 C 10.101562 18.898438 9.601562 18.699219 9.199219 18.199219 C 9.101562 18.101562 9.199219 18 9.199219 17.898438 C 9.800781 17.5 10.398438 17.300781 11.101562 17.601562 C 11.398438 17.699219 11.699219 18 11.898438 18.199219 C 12 18.199219 12 18.398438 11.898438 18.5 C 11.5 18.800781 11.101562 19 10.800781 18.898438 Z M 11.5 18.300781 C 11.199219 17.800781 10 17.699219 9.601562 18.101562 C 9.898438 18.5 10.800781 18.699219 11.5 18.300781 Z M 11.5 18.300781 "/>
<path style=" stroke:none;fill-rule:nonzero;fill:rgb(1.176471%,28.627451%,14.509804%);fill-opacity:1;" d="M 16.800781 9.5 C 16.800781 10.199219 16.5 10.601562 16.101562 11 C 16 11 15.898438 11 15.800781 11 C 15 10.398438 14.898438 9.300781 15.5 8.601562 C 15.898438 8.101562 16 8.101562 16.398438 8.601562 C 16.601562 8.898438 16.699219 9.199219 16.699219 9.5 Z M 15.898438 10.601562 C 16.5 10.199219 16.601562 9.199219 16.101562 8.699219 C 16 8.699219 15.898438 8.699219 15.898438 8.699219 C 15.398438 9.300781 15.398438 10 15.898438 10.601562 Z M 15.898438 10.601562 "/>
<path style=" stroke:none;fill-rule:nonzero;fill:rgb(1.176471%,28.627451%,14.509804%);fill-opacity:1;" d="M 11 14.5 C 11 15 10.898438 15.101562 10.5 15 C 9.800781 14.800781 9.398438 14.5 9.101562 13.800781 C 9.101562 13.601562 9.101562 13.300781 9.101562 13 C 9.101562 12.800781 9.199219 12.800781 9.398438 12.800781 C 10.101562 12.898438 10.699219 13.300781 11 14.101562 C 11 14.300781 11 14.398438 11 14.5 Z M 9.398438 13.199219 C 9.300781 13.800781 10.101562 14.699219 10.601562 14.5 C 10.5 13.699219 10 13.199219 9.398438 13.199219 Z M 9.398438 13.199219 "/>
<path style=" stroke:none;fill-rule:nonzero;fill:rgb(1.176471%,28.627451%,14.509804%);fill-opacity:1;" d="M 22 16.898438 C 21.800781 16.898438 21.5 16.800781 21.300781 16.699219 C 21.101562 16.699219 21.101562 16.5 21.199219 16.398438 C 21.398438 15.800781 22.101562 15.300781 22.699219 15.199219 C 23 15.199219 23.300781 15.199219 23.699219 15.300781 C 23.898438 15.300781 23.898438 15.5 23.800781 15.601562 C 23.5 16.199219 22.898438 16.800781 22 16.800781 Z M 21.601562 16.5 C 22.101562 16.699219 23.101562 16.5 23.398438 15.800781 C 22.898438 15.5 21.800781 16 21.601562 16.5 Z M 21.601562 16.5 "/>
<path style=" stroke:none;fill-rule:nonzero;fill:rgb(1.176471%,28.627451%,14.509804%);fill-opacity:1;" d="M 9.898438 16.898438 C 9.101562 16.898438 8.5 16.5 8.199219 15.800781 C 8.101562 15.5 8.101562 15.5 8.398438 15.398438 C 9.300781 15.101562 10.199219 15.398438 10.601562 16.199219 C 10.601562 16.300781 10.699219 16.398438 10.800781 16.601562 C 10.800781 16.601562 10.800781 16.800781 10.699219 16.800781 C 10.5 16.800781 10.199219 16.898438 9.898438 17 Z M 8.601562 15.800781 C 8.800781 16.398438 10 16.800781 10.398438 16.5 C 10 15.898438 9.300781 15.601562 8.601562 15.800781 Z M 8.601562 15.800781 "/>
<path style=" stroke:none;fill-rule:nonzero;fill:rgb(1.176471%,28.627451%,14.509804%);fill-opacity:1;" d="M 22.898438 13.300781 C 22.898438 14.101562 22.300781 14.800781 21.601562 15 C 20.898438 15.199219 20.898438 15 21 14.5 C 21.101562 13.601562 21.800781 13 22.601562 12.898438 C 22.800781 12.898438 22.898438 12.898438 22.898438 13.101562 C 22.898438 13.101562 22.898438 13.300781 22.898438 13.300781 Z M 22.601562 13.199219 C 22 13.199219 21.5 13.898438 21.398438 14.398438 C 21.398438 14.601562 21.5 14.601562 21.601562 14.5 C 21.699219 14.5 21.898438 14.398438 22 14.300781 C 22.398438 14.101562 22.699219 13.5 22.601562 13.101562 Z M 22.601562 13.199219 "/>
<path style=" stroke:none;fill-rule:nonzero;fill:rgb(1.176471%,28.627451%,14.509804%);fill-opacity:1;" d="M 18.5 14.601562 C 18 14.601562 17.898438 14.601562 18 14.101562 C 18.199219 13.398438 18.5 13 19.199219 12.800781 C 19.398438 12.800781 19.601562 12.699219 19.898438 12.699219 C 20.199219 12.699219 20.300781 12.800781 20.199219 13.101562 C 20.101562 13.699219 19.699219 14.199219 19.101562 14.5 C 18.898438 14.601562 18.601562 14.601562 18.5 14.699219 Z M 18.398438 14.199219 C 19.101562 14.199219 19.898438 13.601562 19.800781 13 C 19.101562 13 18.398438 13.5 18.398438 14.199219 Z M 18.398438 14.199219 "/>
<path style=" stroke:none;fill-rule:nonzero;fill:rgb(1.176471%,28.627451%,14.509804%);fill-opacity:1;" d="M 12.199219 12.800781 C 13 12.800781 13.5 13.300781 13.800781 14 C 13.800781 14.199219 13.800781 14.398438 13.800781 14.601562 C 13.800781 14.800781 13.601562 14.800781 13.5 14.800781 C 12.898438 14.800781 12.101562 14.398438 11.800781 13.800781 C 11.800781 13.601562 11.601562 13.398438 11.601562 13.199219 C 11.601562 12.898438 11.601562 12.800781 11.898438 12.800781 C 11.898438 12.800781 12 12.800781 12.101562 12.800781 Z M 13.5 14.300781 C 13.5 13.601562 12.601562 13 12.101562 13.199219 C 12 13.699219 12.898438 14.5 13.5 14.300781 Z M 13.5 14.300781 "/>
<path style=" stroke:none;fill-rule:nonzero;fill:rgb(1.176471%,28.627451%,14.509804%);fill-opacity:1;" d="M 17.199219 12.601562 C 16.898438 12.601562 16.800781 12.601562 16.800781 12.199219 C 16.800781 11.398438 17.601562 10.800781 18.300781 10.800781 C 18.398438 10.800781 18.5 10.800781 18.5 11 C 18.5 11.800781 17.898438 12.5 17.101562 12.5 Z M 18.199219 11.300781 C 17.800781 11.199219 17.199219 11.800781 17.199219 12.199219 C 17.800781 12.199219 18.199219 11.800781 18.199219 11.300781 Z M 18.199219 11.300781 "/>
<path style=" stroke:none;fill-rule:nonzero;fill:rgb(1.176471%,28.627451%,14.509804%);fill-opacity:1;" d="M 15 12.699219 C 14.300781 12.898438 13.601562 12.398438 13.398438 11.800781 C 13.398438 11.800781 13.398438 11.800781 13.398438 11.699219 C 13.398438 11.5 13.398438 11.300781 13.398438 11.101562 C 13.601562 11.101562 13.800781 11.101562 14 11.101562 C 14.699219 11.300781 15.199219 11.898438 15.101562 12.699219 Z M 14.699219 12.398438 C 14.699219 11.800781 14.199219 11.5 13.699219 11.5 C 13.699219 11.898438 14.199219 12.398438 14.699219 12.398438 Z M 14.699219 12.398438 "/>
<path style=" stroke:none;fill-rule:nonzero;fill:rgb(1.176471%,28.627451%,14.509804%);fill-opacity:1;" d="M 23.5 14.898438 C 23.398438 14.898438 23.199219 14.898438 23.101562 14.898438 C 22.898438 14.898438 22.898438 14.699219 23 14.5 C 23.300781 13.898438 24 13.699219 24.601562 13.898438 C 24.699219 13.898438 24.800781 14 24.699219 14.199219 C 24.5 14.699219 24.101562 14.898438 23.5 15 Z M 24.199219 14.199219 C 23.800781 14.199219 23.5 14.199219 23.398438 14.5 C 23.699219 14.5 24 14.5 24.199219 14.199219 Z M 24.199219 14.199219 "/>
<path style=" stroke:none;fill-rule:nonzero;fill:rgb(1.176471%,28.627451%,14.509804%);fill-opacity:1;" d="M 8.398438 14.898438 C 7.898438 14.898438 7.398438 14.601562 7.199219 14.101562 C 7.199219 14.101562 7.199219 13.898438 7.199219 13.898438 C 7.800781 13.5 8.699219 13.898438 8.898438 14.5 C 8.898438 14.5 8.898438 14.699219 8.800781 14.699219 C 8.601562 14.699219 8.5 14.699219 8.300781 14.800781 Z M 8.601562 14.5 C 8.398438 14.199219 8.101562 14.101562 7.699219 14.199219 C 7.898438 14.5 8.199219 14.5 8.601562 14.5 Z M 8.601562 14.5 "/>
<path style=" stroke:none;fill-rule:nonzero;fill:rgb(1.176471%,28.627451%,14.509804%);fill-opacity:1;" d="M 23.898438 16.800781 C 24.199219 16.800781 24.398438 16.800781 24.699219 17.101562 C 24.800781 17.101562 24.800781 17.300781 24.699219 17.398438 C 24.199219 17.898438 23.5 18 22.898438 17.398438 C 22.898438 17.398438 22.800781 17.199219 22.898438 17.101562 C 23.101562 16.800781 23.5 16.699219 23.898438 16.699219 Z M 24.300781 17.300781 C 24 17.199219 23.699219 17.101562 23.398438 17.300781 C 23.601562 17.5 24 17.5 24.300781 17.300781 Z M 24.300781 17.300781 "/>
<path style=" stroke:none;fill-rule:nonzero;fill:rgb(1.176471%,28.627451%,14.509804%);fill-opacity:1;" d="M 8.101562 17.898438 C 7.800781 17.898438 7.5 17.800781 7.199219 17.5 C 7.101562 17.398438 7.101562 17.300781 7.199219 17.199219 C 7.699219 16.699219 8.601562 16.800781 9 17.398438 C 9 17.398438 9 17.601562 9 17.601562 C 8.800781 17.898438 8.398438 17.898438 8.101562 18 Z M 8.601562 17.300781 C 8.300781 17.101562 8 17.101562 7.699219 17.300781 C 8 17.5 8.398438 17.5 8.601562 17.300781 Z M 8.601562 17.300781 "/>
<path style=" stroke:none;fill-rule:nonzero;fill:rgb(1.176471%,28.627451%,14.509804%);fill-opacity:1;" d="M 9.898438 11.398438 C 9.898438 10.898438 10 10.800781 10.5 11 C 11 11.300781 11.300781 11.800781 11.101562 12.398438 C 11.101562 12.398438 11 12.5 10.898438 12.5 C 10.300781 12.398438 9.898438 11.898438 9.898438 11.300781 Z M 10.699219 12.101562 C 10.699219 11.800781 10.601562 11.5 10.300781 11.398438 C 10.300781 11.699219 10.398438 12 10.699219 12.101562 Z M 10.699219 12.101562 "/>
<path style=" stroke:none;fill-rule:nonzero;fill:rgb(1.176471%,28.627451%,14.509804%);fill-opacity:1;" d="M 22.101562 11.601562 C 22.101562 12.199219 21.699219 12.699219 21.101562 12.800781 C 21.101562 12.800781 20.898438 12.800781 20.898438 12.699219 C 20.699219 12.101562 20.898438 11.601562 21.5 11.300781 C 21.601562 11.300781 21.699219 11.199219 21.898438 11.199219 C 21.898438 11.199219 22.101562 11.199219 22.101562 11.300781 C 22.101562 11.398438 22.101562 11.5 22.101562 11.601562 Z M 21.199219 12.398438 C 21.5 12.398438 21.800781 12 21.699219 11.699219 C 21.398438 11.800781 21.300781 12 21.199219 12.398438 Z M 21.199219 12.398438 "/>
<path style=" stroke:none;fill-rule:nonzero;fill:rgb(1.176471%,28.627451%,14.509804%);fill-opacity:1;" d="M 14.199219 10.699219 C 13.5 10.699219 12.898438 9.898438 13.101562 9.300781 C 13.101562 9.101562 13.199219 9.101562 13.398438 9.101562 C 13.898438 9.300781 14.300781 9.800781 14.300781 10.300781 C 14.300781 10.398438 14.300781 10.601562 14.300781 10.699219 Z M 14 10.199219 C 14 9.800781 13.800781 9.601562 13.5 9.398438 C 13.5 9.800781 13.699219 10.101562 14 10.199219 Z M 14 10.199219 "/>
<path style=" stroke:none;fill-rule:nonzero;fill:rgb(1.176471%,28.627451%,14.509804%);fill-opacity:1;" d="M 12.300781 11.601562 C 11.601562 11.601562 11 10.898438 11.199219 10.101562 C 11.199219 9.898438 11.398438 9.898438 11.5 10 C 12.101562 10.199219 12.601562 10.898438 12.300781 11.601562 Z M 11.601562 10.398438 C 11.601562 10.699219 11.699219 11 12.101562 11.199219 C 12.101562 10.800781 12.101562 10.601562 11.601562 10.398438 Z M 11.601562 10.398438 "/>
<path style=" stroke:none;fill-rule:nonzero;fill:rgb(1.176471%,28.627451%,14.509804%);fill-opacity:1;" d="M 19.101562 11.101562 C 19.101562 10.5 19.5 10 20 9.898438 C 20.199219 9.898438 20.199219 9.898438 20.300781 10.101562 C 20.398438 10.800781 20 11.398438 19.398438 11.5 C 19.398438 11.5 19.199219 11.5 19.199219 11.398438 C 19.199219 11.300781 19.199219 11.199219 19.199219 11.101562 Z M 20 10.398438 C 19.601562 10.5 19.5 10.800781 19.5 11.199219 C 19.800781 11 20 10.800781 20 10.398438 Z M 20 10.398438 "/>
<path style=" stroke:none;fill-rule:nonzero;fill:rgb(1.176471%,28.627451%,14.509804%);fill-opacity:1;" d="M 17.398438 10.5 C 16.898438 9.800781 17.398438 8.898438 18.199219 8.800781 C 18.199219 8.800781 18.398438 8.898438 18.398438 9 C 18.398438 9.398438 18.398438 9.800781 18 10.101562 C 17.800781 10.300781 17.601562 10.300781 17.398438 10.398438 Z M 17.601562 10 C 18 9.898438 18.199219 9.5 18.101562 9.199219 C 17.800781 9.199219 17.5 9.601562 17.601562 10 Z M 17.601562 10 "/>
<path style=" stroke:none;fill-rule:nonzero;fill:rgb(1.176471%,28.627451%,14.509804%);fill-opacity:1;" d="M 15 16 C 15 15.601562 15.101562 15.300781 15.398438 15.101562 C 15.800781 14.699219 16.398438 14.699219 16.699219 15.101562 C 17 15.601562 17.101562 16.101562 16.699219 16.601562 C 16.5 16.898438 16.101562 17.101562 15.800781 17.101562 C 15.398438 17.101562 15.101562 16.699219 15 16.398438 C 15 16.300781 15 16.101562 15 16 Z M 16.800781 16 C 16.800781 15.800781 16.800781 15.601562 16.601562 15.5 C 16.398438 15.101562 16 15 15.699219 15.199219 C 15.398438 15.398438 15.300781 15.699219 15.300781 16.101562 C 15.300781 16.699219 15.800781 17 16.199219 16.800781 C 16.5 16.800781 16.699219 16.300781 16.699219 15.898438 Z M 16.800781 16 "/>
</g>
</svg>
