<svg width="17" height="17" viewBox="0 0 17 17" fill="none" xmlns="http://www.w3.org/2000/svg">
<path d="M14.875 0H2.125C0.952708 0 0 0.952708 0 2.125V14.875C0 16.0466 0.952708 17 2.125 17H14.875C16.0466 17 17 16.0466 17 14.875V2.125C17 0.952708 16.0466 0 14.875 0Z" fill="#3B5999"/>
<path d="M11.6875 8.5V6.375C11.6875 5.7885 12.1635 5.84375 12.75 5.84375H13.8125V3.1875H11.6875C9.92658 3.1875 8.5 4.61408 8.5 6.375V8.5H6.375V11.1562H8.5V17H11.6875V11.1562H13.2812L14.3438 8.5H11.6875Z" fill="white"/>
</svg>
