<svg width="40" height="30" viewBox="0 0 40 30" fill="none" xmlns="http://www.w3.org/2000/svg">
<path d="M23.3429 19.4866C22.3477 20.15 21.1918 20.5007 20 20.5007C18.8083 20.5007 17.6523 20.15 16.6572 19.4866L0.266328 8.55902C0.175391 8.4984 0.0867969 8.4352 0 8.3702V26.2762C0 28.3292 1.66602 29.9585 3.68227 29.9585H36.3177C38.3706 29.9585 39.9999 28.2925 39.9999 26.2762V8.37012C39.913 8.43527 39.8242 8.49863 39.733 8.55934L23.3429 19.4866Z" fill="#FCD205"/>
<path d="M1.56641 6.60875L17.9573 17.5364C18.5777 17.9501 19.2888 18.1569 19.9999 18.1569C20.7111 18.1569 21.4223 17.95 22.0427 17.5364L38.4336 6.60875C39.4145 5.95523 40 4.86148 40 3.68102C40 1.65125 38.3487 0 36.319 0H3.68102C1.65133 7.8125e-05 0 1.65133 0 3.68297C0 4.86148 0.585625 5.95523 1.56641 6.60875Z" fill="#FCD205"/>
</svg>
