<svg width="17" height="17" viewBox="0 0 17 17" fill="none" xmlns="http://www.w3.org/2000/svg">
<path d="M1.1089 1.18026C-0.223174 2.56363 0.0494575 4.03314 0.0494575 8.49748C0.0494575 12.2048 -0.597512 15.9213 2.78848 16.7963C3.84581 17.0681 13.2142 17.0681 14.2701 16.7949C15.6798 16.4312 16.8269 15.2879 16.9837 13.2944C17.0056 13.0162 17.0056 3.98371 16.983 3.69984C16.8163 1.57641 15.5089 0.352639 13.7863 0.104777C13.3914 0.0475785 13.3123 0.0306307 11.2867 0.0270999C4.10149 0.0306307 2.52645 -0.28926 1.1089 1.18026Z" fill="url(#paint0_linear_141_46)"/>
<path d="M8.55177 2.28676C5.98304 2.28676 3.54377 2.06032 2.61207 4.42984C2.22722 5.4085 2.2831 6.67949 2.2831 8.4994C2.2831 10.0964 2.23146 11.5973 2.61207 12.5683C3.54165 14.9392 6.00073 14.712 8.55036 14.712C11.0101 14.712 13.5463 14.9658 14.4894 12.5683C14.8749 11.5798 14.8183 10.3277 14.8183 8.4994C14.8183 6.07239 14.9534 4.50556 13.7656 3.32921C12.563 2.13743 10.9366 2.28676 8.54894 2.28676H8.55177ZM7.99006 3.40632C13.3482 3.39791 14.0302 2.80763 13.6539 11.0077C13.5202 13.9079 11.2917 13.5897 8.55248 13.5897C3.55792 13.5897 3.41431 13.4481 3.41431 8.49659C3.41431 3.48764 3.81048 3.40913 7.99006 3.40492V3.40632ZM11.898 4.43756C11.4827 4.43756 11.146 4.77125 11.146 5.18276C11.146 5.59428 11.4827 5.92797 11.898 5.92797C12.3133 5.92797 12.65 5.59428 12.65 5.18276C12.65 4.77125 12.3133 4.43756 11.898 4.43756ZM8.55177 5.30895C6.77396 5.30895 5.3329 6.73768 5.3329 8.4994C5.3329 10.2611 6.77396 11.6891 8.55177 11.6891C10.3296 11.6891 11.7699 10.2611 11.7699 8.4994C11.7699 6.73768 10.3296 5.30895 8.55177 5.30895ZM8.55177 6.42852C11.3143 6.42852 11.3179 10.5703 8.55177 10.5703C5.78991 10.5703 5.78566 6.42852 8.55177 6.42852Z" fill="white"/>
<defs>
<linearGradient id="paint0_linear_141_46" x1="1.14141" y1="15.8925" x2="16.8931" y2="2.2569" gradientUnits="userSpaceOnUse">
<stop stop-color="#FFDD55"/>
<stop offset="0.5" stop-color="#FF543E"/>
<stop offset="1" stop-color="#C837AB"/>
</linearGradient>
</defs>
</svg>
