<?xml version="1.0" encoding="UTF-8"?>
<svg id="Layer_1" data-name="Layer 1" xmlns="http://www.w3.org/2000/svg" version="1.1" viewBox="0 0 453.38 520">
  <defs>
    <style>
      .cls-1 {
        fill: #fff;
        stroke-width: 0px;
      }
    </style>
  </defs>
  <path class="cls-1" d="M357.93,330.6c0,6.01-4.89,10.9-10.9,10.9s-10.9,4.88-10.9,10.9,4.88,10.9,10.9,10.9c18.03,0,32.69-14.67,32.69-32.69,0-6.02-4.88-10.9-10.9-10.9s-10.9,4.88-10.9,10.9h.01ZM126.19,142.44c6.02,0,10.9-4.88,10.9-10.9,0-30.04,24.44-54.49,54.49-54.49,6.02,0,10.9-4.88,10.9-10.9s-4.88-10.9-10.9-10.9c-42.06,0-76.28,34.22-76.28,76.28,0,6.02,4.88,10.9,10.9,10.9h0ZM353.74,233.23c-2.67-2.67-5.71-4.82-9.01-6.4l9.01-9.01c12.75-12.75,12.75-33.49,0-46.23-2.96-2.96-6.4-5.28-10.14-6.9,7-12.21,5.61-28.45-5.27-39.33-10.74-10.74-26.95-12.38-39.35-5.27-1.59-3.69-3.88-7.14-6.88-10.15-12.78-12.78-33.46-12.78-46.23,0l-110.52,110.52c-4.78,4.78-10.3,3.02-11.88,2.36-1.58-.65-6.73-3.31-6.73-10.07v-33.47c0-8.73-3.4-16.94-9.58-23.12-12.75-12.75-33.49-12.75-46.23,0-6.17,6.17-9.57,14.38-9.57,23.12v101.03c0,33.02,12.86,64.07,36.21,87.42l1.3,1.3c23.44,23.44,54.55,36.36,87.61,36.39h.11c33.01,0,64.04-12.85,87.39-36.2l89.76-89.76c12.78-12.78,12.78-33.46,0-46.23h0ZM338.33,264.05l-89.76,89.76c-39.73,39.73-104.46,39.64-144.29-.19l-1.3-1.3c-19.23-19.23-29.83-44.81-29.83-72.01v-101.03c0-2.91,1.13-5.65,3.19-7.71,4.25-4.25,11.16-4.25,15.41,0,2.06,2.06,3.19,4.79,3.19,7.7v33.47c0,13.47,7.73,25.05,20.18,30.2,12.45,5.16,26.1,2.44,35.63-7.09l110.52-110.52c4.26-4.26,11.15-4.26,15.41,0,4.25,4.25,4.25,11.16,0,15.41h0l-92.46,92.46c-4.26,4.26-4.26,11.15,0,15.41,4.25,4.26,11.15,4.26,15.41,0l107.88-107.88c4.26-4.26,11.15-4.26,15.41,0,4.26,4.26,4.26,11.15,0,15.41l-107.88,107.88c-4.26,4.26-4.26,11.15,0,15.41,4.25,4.26,11.15,4.26,15.41,0l92.47-92.46c4.26-4.26,11.15-4.26,15.41,0,4.25,4.25,4.25,11.16,0,15.41l-92.46,92.46c-4.26,4.26-4.26,11.15,0,15.41,4.25,4.26,11.16,4.26,15.41,0l61.64-61.64c4.26-4.26,11.15-4.26,15.41,0,4.26,4.26,4.26,11.15,0,15.41h0v.03ZM412.42,319.7c-6.02,0-10.9,4.88-10.9,10.9,0,30.04-24.44,54.49-54.49,54.49-6.02,0-10.9,4.88-10.9,10.9s4.88,10.9,10.9,10.9c42.06,0,76.28-34.22,76.28-76.28,0-6.02-4.88-10.9-10.9-10.9h.01ZM191.57,98.85c-18.03,0-32.69,14.67-32.69,32.69,0,6.02,4.88,10.9,10.9,10.9s10.9-4.88,10.9-10.9,4.89-10.9,10.9-10.9,10.9-4.88,10.9-10.9-4.88-10.9-10.9-10.9h0Z"/>
</svg>