<svg id="solid" height="512" viewBox="0 0 64 64" width="512" xmlns="http://www.w3.org/2000/svg"><path d="m37.558 20.897c-4.244.311-7.139 3.072-8.819 5.334-.56.753-.736 1.709-.486 2.623.249.91.884 1.638 1.742 1.998 1.147.48 2.422.769 3.787.854 1.099.07 2.093.573 2.8 1.415.733.875 1.08 2.044.951 3.208-.27 2.425.29 4.956.807 6.653.296.975 1.055 1.733 2.028 2.029 1.698.517 4.237 1.08 6.654.807.16-.018.32-.026.48-.026 1 0 1.974.345 2.728.979.842.706 1.345 1.7 1.414 2.799.087 1.366.375 2.641.855 3.787.36.858 1.088 1.493 1.998 1.742.915.25 1.87.072 2.623-.486 2.262-1.681 5.022-4.574 5.334-8.819.354-4.842-2.516-10.348-8.532-16.364s-11.524-8.892-16.364-8.533zm-.719 4.523c-1.394.349-2.703 1.206-3.891 2.547-.099.111-.236.168-.374.168-.118 0-.236-.041-.332-.126-.206-.183-.226-.499-.042-.706 1.323-1.494 2.803-2.454 4.396-2.854.264-.066.538.096.606.364s-.095.54-.363.607zm7.928 1.493c-.093.159-.26.248-.432.248-.086 0-.173-.021-.252-.068-1.073-.626-2.108-1.1-3.079-1.408-.263-.084-.409-.364-.325-.628.083-.263.361-.407.628-.325 1.04.33 2.145.834 3.28 1.498.238.138.319.445.18.683z"/><path d="m50.646 49.634c-.052-.823-.428-1.567-1.059-2.097-.667-.559-1.566-.823-2.454-.724-2.591.288-5.27-.3-7.057-.844-1.294-.394-2.301-1.401-2.694-2.695-.544-1.786-1.132-4.461-.844-7.056.1-.893-.164-1.787-.724-2.454-.529-.631-1.273-1.007-2.097-1.06-1.477-.093-2.859-.406-4.11-.931-.188-.079-.355-.19-.526-.295-6.506 8.662-6.678 17.419-5.908 22.715.751-2.696 1.992-6.667 3.518-9.718.125-.246.423-.347.671-.224.247.124.347.424.224.671-1.947 3.892-3.431 9.36-3.988 11.561.075.33.151.634.224.908.029.108.086.202.127.305.9-2.014 2.384-5.061 4.051-7.389.161-.227.475-.275.697-.115.225.16.276.473.115.697-1.803 2.517-3.391 5.917-4.224 7.835.341.347.769.6 1.244.75 2.76-.974 6.603-2.407 9.458-3.773.247-.12.547-.015.667.235.119.249.014.548-.235.667-2.427 1.161-5.542 2.363-8.129 3.302 4.999 1.004 14.698 1.559 24.278-5.639-.104-.171-.215-.337-.294-.525-.523-1.246-.837-2.629-.931-4.107z"/><path d="m27.95 30.442c-1.48 1.511-3.278 2.659-4.595 3.36-.589.313-1.234.471-1.88.471s-1.292-.157-1.881-.471c-1.623-.86-3.899-2.312-5.516-4.34-.552-.69-1.358-1.129-2.211-1.203-.811-.064-1.588.188-2.197.727-1.093.963-2.277 1.709-3.521 2.218-.182.074-.371.11-.559.156 1.497 10.547 7.454 16.776 11.684 19.942-1.341-2.377-3.24-6.003-4.307-9.205-.087-.262.055-.545.316-.633.263-.087.545.055.633.316 1.358 4.076 4.119 8.896 5.243 10.779.011.018.012.038.02.057.29.182.563.348.811.492.091.052.191.083.286.124-.771-2.015-1.864-5.179-2.327-7.98-.045-.272.14-.529.412-.574.27-.047.529.139.574.412.499 3.02 1.762 6.493 2.51 8.39.207.001.412-.019.617-.061-.638-5.538-.135-14.096 6.232-22.558-.124-.131-.236-.272-.344-.419z"/><path d="m9.009 28.235c.816-.721 1.854-1.065 2.946-.973 1.124.098 2.183.672 2.905 1.575 1.59 1.994 3.942 3.413 5.204 4.081.883.471 1.938.471 2.82 0 1.318-.701 3.144-1.858 4.567-3.388-.054-.138-.124-.266-.164-.411-.332-1.213-.097-2.483.647-3.483 1.806-2.43 4.928-5.397 9.549-5.736.872-.062 1.764-.02 2.672.109-2.563-4.915-8.835-7.409-18.675-7.409-8.394 0-14.237 1.838-17.369 5.462-2.745 3.177-2.84 7.124-2.437 9.876.135.91.676 1.697 1.483 2.159.809.462 1.761.525 2.613.181 1.141-.467 2.231-1.154 3.239-2.043zm.383-10.125c.958-.494 2.08-.913 3.335-1.244.271-.073.541.09.611.355.07.268-.089.541-.355.611-1.186.312-2.239.705-3.132 1.166-.073.038-.152.056-.229.056-.181 0-.355-.099-.444-.271-.128-.244-.032-.546.214-.673zm-4.035 8.625c-.011.001-.021.001-.03.001-.263 0-.483-.204-.499-.47-.118-1.97.244-3.673 1.078-5.062.143-.237.452-.314.686-.172.237.142.314.449.172.686-.728 1.214-1.043 2.724-.938 4.488.017.276-.193.513-.469.529z"/><path d="m55.652 29.775c4.275-5.564 3.339-9.816 1.751-12.425-.282-.467-.749-.771-1.284-.837-.527-.066-1.043.115-1.418.49-.561.561-.661 1.41-.274 2.138 1.462 2.784.162 5.902-1.3 8.141.498.461.998.936 1.503 1.441.351.352.69.703 1.022 1.052z"/><path d="m21.48 11.6c.491 0 .963.013 1.437.025-.9-6.86-4.517-9.172-7.444-9.885-.521-.127-1.058-.014-1.473.312-.41.32-.646.804-.646 1.326 0 .778.521 1.439 1.296 1.677 2.968.924 4.228 4.004 4.769 6.588.673-.026 1.355-.043 2.061-.043z"/></svg>