<?xml version="1.0" encoding="UTF-8"?>
<svg id="Layer_1" data-name="Layer 1" xmlns="http://www.w3.org/2000/svg" version="1.1" viewBox="0 0 252 150">
  <defs>
    <style>
      .cls-1 {
        fill: #ff9a3e;
      }

      .cls-1, .cls-2 {
        stroke-width: 0px;
      }

      .cls-2 {
        fill: #034925;
      }
    </style>
  </defs>
  <circle class="cls-1" cx="178.3" cy="73.8" r="70.2"/>
  <g>
    <g>
      <path class="cls-2" d="M231.7,108.4c-.4.3-.6.4-.8.5-6.1,5-14.6,3.3-18.5-3.6-3.7-6.8-1.6-16.1,4.6-20.2,2.3-1.5,4.9-1.9,7.6-1.8,2.4.1,4.6.8,6.7,1.8.2,0,.5.2.5.1,1.1-1.3,2.6-.4,3.8-.6.8-.1,1.6,0,2.4,0,.9,0,1.2.3,1.2,1.2-.2,7.2-.3,14.3-.4,21.5,0,2.8-.2,5.6-.3,8.3,0,.4,0,.8,0,1.3,2.3.4,4.6.9,6.9,1.3-.3,2.5-.5,4.9-.7,7.4-2.2-.4-4.3-.8-6.5-1.1-.3,2.5-.6,4.9-1,7.3-.5,2.8-1.4,5.6-2.8,8.2-4.5,8.3-14.6,8-19.8,1.7-2.4-2.9-3.9-6.3-3.4-10.1.6-4.3,2.7-7.9,6-10.8,3.4-2.9,7.4-4.1,11.7-4.5,2.7-.2,2.7-.1,2.7-2.8,0-1.7,0-3.4,0-5.3ZM222.5,103.8c.8-.2,1.7-.3,2.5-.7,3.4-1.6,5.3-4.6,6.4-8.1,0-.2,0-.6-.3-.8-2-1.6-4.1-2.8-6.7-2.9-2.4-.1-5.2,1-6.2,3.6-.8,2.1-.8,4.1.1,6.1.8,1.7,2,2.8,4.1,2.8ZM231.4,124.1c-3.1-.2-5.5,1-7.9,2.3-1.7.9-3,2.3-3.8,4.2-1,2.5.1,5.6,2.6,6.8,2.5,1.3,5.5.4,6.9-2,2-3.5,2.2-7.3,2.3-11.3Z"/>
      <path class="cls-2" d="M5.7,72.2c2.2.2,4.2.4,6.2.7.8,0,.6.8.5,1.2-.2,2-.5,3.9-.6,5.9-.3,4.1-.5,8.1-.7,12.2-.2,3.3-.1,6.6.8,9.8.5,1.7,1.2,3.3,2.1,4.7,1.5,2.4,3.6,2.4,5.5.2,1.8-2.1,2.5-4.6,3.1-7.2,1.2-5,1.6-10,1.8-15.1.1-3,.2-5.9.4-9h6.7c0,1.8,0,3.4,0,5.1.3,6.6.9,13.2,2.5,19.6.6,2.3,1.4,4.5,3.2,6.3,1.9,1.8,4,1.8,5.8-.1,1.5-1.6,2.5-3.4,2.8-5.5.6-3.7,1.2-7.4,1.3-11.1,0-6-.3-11.9-.5-18.1,2-.2,4.2-.3,6.5-.5.3,2.6.7,5.1.9,7.7.2,4.4.3,8.8.2,13.2-.1,4.8-1,9.6-2.9,14.1-1.1,2.6-2.6,5-4.8,6.7-4.9,3.8-11.4,2.7-15.2-2.6-1.4-2-2.4-4.2-3.5-6.3-.8,1.5-1.5,3.3-2.5,4.8-1,1.5-2.2,3.1-3.7,4.2-3.9,2.9-8.4,2.3-11.8-1.2-2.7-2.7-3.7-6.2-4.4-9.8-1.2-6.5-1.1-13.1-.5-19.6.3-3.4.7-6.8,1.1-10.3Z"/>
      <path class="cls-2" d="M114.4,114.4c-.2-4.2-.4-8.3-.5-12.5-.1-4.7-.2-9.3,0-14,.1-4.4.5-8.9.8-13.3,0-.9,0-1.8,0-2.7,0-.7.3-1,1-.9,1.8.2,3.6.5,5.4.7.7,0,.9.5.9,1.1-.2,2.8-.4,5.7-.5,8.5-.2,3.1-.3,6.1-.4,9.3,1.6-.6,2.9-1.2,4.4-1.6,4.1-1.1,8.1-1.1,11.7,1.5,3.1,2.3,4.4,5.7,3.7,9.5-1.1,6.4-5.3,10.1-11.1,12.4-3.3,1.3-6.7,1.8-10.3,1.8-1.6,0-3.1,0-4.9,0ZM121,107.4c.2,0,.4.1.5.1,3.2-.5,6.2-1.3,8.8-3.3,1.9-1.6,3.3-3.5,3.1-6.2,0-1.1-.7-1.8-1.8-1.9-1,0-2.1-.1-3.1,0-2.8.3-5.1,1.5-7.1,3.5-.2.2-.4.6-.5.8,0,2.3,0,4.6,0,7Z"/>
      <path class="cls-2" d="M203.7,112.5c0,0,0-.2,0-.3-.1-4.2-.2-8.4-.5-12.6-.1-1.8-.5-3.7-1-5.4-.6-2.2-2.2-2.7-4.5-1.4-2.2,1.3-4,3-5.6,5-3.3,4.2-5.8,8.9-7,14.1-.3,1.4-.9,1.5-2.1,1.6-1.4,0-2.7.4-4,.6-.7.1-1.1.1-1.3-.7-.9-5.7-1.3-11.5-1.2-17.3,0-4,.5-8,.8-12,0-.6.3-.9.9-.8,1.8.2,3.6.4,5.4.6.7,0,.9.4.9,1.1-.2,2.9-.4,5.8-.5,8.8,0,.9,0,1.8-.1,2.8,1.1-1.3,2-2.6,3-3.8,2.8-3.2,6-5.9,9.9-7.6,5.5-2.4,10.6-.1,12.3,5.7.7,2.6,1.2,5.4,1.4,8.2.3,4.1.3,8.3.4,12.4,0,1.3-.2,1.4-1.4,1.4-1.9-.1-3.8-.3-5.8-.4Z"/>
      <path class="cls-2" d="M149.1,103.3c.2,1.8,2,3.5,3.8,3.8,2.6.4,5,0,7.2-1.5.9-.6,1.4-.5,2,.3,1,1.2,2,2.4,3,3.5.5.5.4,1-.1,1.4-1.9,1.4-3.9,2.5-6.2,3-2.6.6-5.2.7-7.8,0-4.4-1.1-7.3-4-8.8-8.2-2.5-7.3,1.1-15.3,7.9-18.4,3.4-1.6,6.9-2.4,10.6-.7,2.7,1.3,4.6,4.9,4.1,7.8-.6,4.2-3.2,6.5-7,7.8-2.6.9-5.3,1.2-8.1.9-.2,0-.5,0-.7,0ZM150.4,96.1c1.4.6,5.7-.2,6.7-1.2.5-.6.3-1.2-.6-1.4-2.2-.6-5,.6-6.1,2.7Z"/>
      <path class="cls-2" d="M78.7,111.3c-5,3.8-10.4,5.1-16.2,2.9-5.7-2.2-8.8-8.8-7.4-15.1,1.6-6.9,7.2-11.6,14.2-12,4-.2,6.8,1.5,8.1,5.1,1.2,3.2,0,6.9-3.1,9.1-3.1,2.2-6.6,2.8-10.3,2.8-.6,0-1.2,0-1.8,0,0,0-.1,0-.2,0,0,1.5,1.2,3.2,2.9,3.9,2.4,1,4.7.6,7-.4.8-.4,1.6-.8,2.5-1.3,1.4,1.6,2.8,3.2,4.3,5ZM63,97.4c1.9.4,5.2,0,6.6-.9.5-.3.9-.9.9-1.4,0-.3-.7-.9-1.1-1-2.3-.6-5.5,1-6.5,3.3Z"/>
      <path class="cls-2" d="M13.3,42.7c1.9,0,3.8,0,5.6,0,.3,0,.7.5.9.8,3,4.5,6,9.1,9,13.7.1.2.3.3.6.7v-15.1h6.1v24.8c-1.9,0-3.7,0-5.5,0-.4,0-.8-.4-1.1-.8-3-4.5-6-9.1-9-13.6,0-.1-.2-.3-.5-.6v15h-6.1v-24.8Z"/>
      <path class="cls-2" d="M61.4,67.6c-1.9,0-3.7,0-5.4,0-.4,0-.8-.4-1.1-.8-3-4.5-6-9-9-13.5-.1-.2-.3-.3-.6-.5v14.7h-6v-24.8c1.9,0,3.7,0,5.6,0,.3,0,.6.4.8.6,3,4.5,6,9,8.9,13.6.2.3.4.5.8,1v-15.2h6v24.8Z"/>
      <path class="cls-2" d="M89.7,58.3v9.2h-6v-24.7c0,0,.1-.1.2-.1,4,0,7.9,0,11.9.2,3.7.3,6.5,2.8,7,6,.7,4-1,7-4.7,8.6-.2,0-.3.2-.7.3,1.9,3.2,3.7,6.4,5.7,9.8-2.3,0-4.4,0-6.4,0-.3,0-.6-.4-.8-.7-1.5-2.6-2.9-5.2-4.3-7.8-.4-.8-.9-1-1.9-.7ZM89.8,53.8c1.7,0,3.3.1,4.9,0,1.4-.2,2.1-1.3,2.1-2.9,0-1.6-.6-2.7-2-2.9-1.6-.3-3.3-.2-5-.3v6.1Z"/>
      <path class="cls-2" d="M111,106c.7,1.6,1.4,3.3,2.1,4.9,0,.2,0,.6-.1.8-2.4,2.4-5.8,4.5-9.6,3-2.8-1.1-4.5-3.4-5.6-6.1-1.6-4-1.8-8.2-1.8-12.5,0-5.5.7-10.9,1.7-16.2.5-3.1,1.1-6.2,1.7-9.3,0-.2.1-.4.2-.7,2.2.3,4.4.7,6.6,1-.5,2.5-1,4.9-1.4,7.3-1.4,7.7-2.5,15.4-1.9,23.2.2,2,.6,4,1.7,5.8.8,1.4,2,1.8,3.4,1,1.1-.6,2-1.4,3.1-2.2Z"/>
      <path class="cls-2" d="M95.2,106.1c.7,1.6,1.4,3.3,2.1,5,0,.2,0,.5,0,.7-2.4,2.4-6,4.5-9.8,2.9-2.5-1-4.1-3.1-5.2-5.5-1.6-3.3-1.9-6.9-2-10.4-.3-6.9.6-13.6,1.8-20.3.5-2.8,1-5.5,1.5-8.5,2.3.3,4.5.7,6.7,1-.5,2.9-1,5.8-1.6,8.6-1,5.4-1.8,10.8-1.8,16.3,0,2.8.3,5.5.7,8.3.1,1.1.7,2.3,1.3,3.3.7,1.3,1.9,1.6,3.2.9,1.1-.6,2.1-1.4,3.2-2.2Z"/>
      <path class="cls-2" d="M65.2,67.5v-24.7h15.1v4.8c-2,0-3.9,0-5.8,0-1.1,0-2.5-.3-3.1.3-.6.6-.2,2-.2,3.1,0,.5,0,1,0,1.7h8v4.7h-8c0,1.7,0,3.3,0,4.9,0,.2.6.6.9.6,2.3,0,4.6,0,6.9,0,.4,0,.8,0,1.3,0v4.7h-15.2Z"/>
      <path class="cls-2" d="M168,86.9c2.3.3,4.4.5,6.4.8.2,0,.5.5.5.8-.2,1.7-.4,3.4-.6,5-.7,5.9-.7,11.9,0,17.8,0,.8,0,1.6.1,2.6-1.1.2-2.1.3-3.2.4-.7,0-1.5,0-2.2,0-1.7.1-1.8,0-1.9-1.7-.2-2.4-.6-4.9-.5-7.3,0-4,.2-8.1.5-12.1.1-2.1.6-4.1.9-6.4Z"/>
      <path class="cls-2" d="M9.5,42.7v24.9c-1.9,0-3.7,0-5.6,0-.1,0-.3-.3-.4-.4,0-.2,0-.5,0-.8,0-7.4,0-14.8,0-22.2,0-1.4,0-1.4,1.5-1.4,1.5,0,3,0,4.6,0Z"/>
      <path class="cls-2" d="M175.1,85.9c-2.1-.3-3.9-.6-5.8-.9-.6,0-.7-.4-.6-.9.4-1.8.8-3.7,1.1-5.5.1-.6.4-.8,1-.8,1.7.2,3.4.4,5.2.7.3,0,.9.6.9.8-.3,2-.6,3.9-1,5.9,0,.3-.5.6-.7.8Z"/>
    </g>
    <g>
      <path class="cls-2" d="M175.4,74.7c-.4.2-.5.4-.6.4-3.6.9-7.2,1.7-11,1.4-2.1-.2-4.3-.5-6.1-1.7-.1,0-.3-.1-.4-.2-.8-.6-1.8-1.4-1.5-2.4.3-.9,1.1-1.9,1.9-2.2,3.6-1.4,7.2-2.4,11.1-1.7,2.1.4,1.8.3,2.5-1.4.5-1.3,1.2-2.6,1.6-4,1-3,.7-5.9-.6-8.7-.9-2-2-4-2.9-6.1-1.4-3.5-.8-6.8,1.1-9.9,1.7-2.7,3.5-5.2,5.1-7.9.7-1.2,1.1-2.5,1.7-3.7.1-.3.2-.5.4-1.1.3.7.6,1.1.8,1.6,1.3,3.5,3.7,6.2,5.8,9.1,1.4,1.9,2.5,3.9,2.9,6.3.5,2.5-.2,4.8-1.1,7.1-1.1,2.9-2.2,5.8-3.2,8.8-.5,1.6-.1,3.2.4,4.8.6,1.7,1.4,3.3,2,5,.2.6.5.6,1.1.6,2.4,0,4.7-.1,7.1,0,1.6,0,3.2.3,4.7.7,1,.3,1.9.9,2.6,1.5,1,.9.9,2.4-.2,3.3-1.6,1.3-3.5,1.9-5.4,2.4-5.8,1.2-11-.7-16-3.4-3.1-1.7-6.3-3.2-9.8-3.6-3.4-.5-6.8-.5-10.1.8-.4.2-.7.5-1.1.7-1.2.9-1.1,2.2.3,2.9.9.5,1.9.8,2.9,1.1,3,1,5.9.1,8.9-.3,1.3-.2,2.6-.3,3.9-.4.3,0,.6.2,1.2.3ZM184.5,68.8c-.7-1.7-1.5-3.2-2-4.8-.6-1.7-.9-3.5-.7-5.4.3-2.9,1.6-5.4,2.7-8,1.2-2.9,2.5-5.7,1.5-8.8-.4-1.2-1.1-2.4-1.8-3.5-1.9-3-3.9-6-5.9-9-.2.2-.4.3-.4.4-2.2,3.3-4.4,6.6-6.4,9.9-1.6,2.7-1.8,5.7-.4,8.6.7,1.6,1.7,3.2,2.4,4.9,1.2,2.9,2.2,5.9,1.2,9-.6,1.8-1.3,3.7-2,5.5-.3.8-.3,1.2.6,1.5.8.3,1.5.8,2.3,1.1,4.3,1.8,8.3,4.3,13,5.2,3.9.7,7.5,0,11-1.5,1.1-.5,1.3-1.9.2-2.6-.8-.5-1.6-1.1-2.5-1.3-4-1-7.9-.8-11.8.3-1.1.3-2.1.3-3.2,0,0-.1,0-.3,0-.4.8-.3,1.7-.6,2.6-.9Z"/>
      <path class="cls-2" d="M199.8,41.2c0,3.8-2.9,7.7-6.6,9-1.1.4-2.3.6-3.4.8-1.3.2-1.8-.3-1.6-1.6.3-1.6.6-3.4,1.5-4.8,1.8-3.1,4.7-4.8,8.3-5.1,1.8-.1,1.8,0,1.8,1.8ZM190,49.1c4.2.2,8.5-4,8.2-8.1-5.4,1.1-8.3,3.9-8.2,8.1Z"/>
      <path class="cls-2" d="M158.2,39.4c5,.3,9.9,4.5,9.8,10.3,0,1-.4,1.4-1.4,1.3-4.8-.3-9-3.7-10-8.3-.1-.5,0-1.1-.1-1.7,0-1.7,0-1.7,1.7-1.7ZM166.3,49.2c.1-4.2-3.4-7.6-8.3-8,0,4.3,4.2,8.1,8.3,8Z"/>
      <path class="cls-2" d="M201,56.5c-1.9.2-3.6-.6-5.1-1.9-.6-.5-.5-.9-.2-1.4,1.5-2.1,5.5-3.6,8-2.7,1.4.5,2.7,1.2,4,1.8.5.3.6.6.1,1.2-1.9,2.2-3.7,3-6.8,3ZM205.8,53.1c-1.8-1.8-7-1.4-8.2.7,2.3,1.9,6.3,1.4,8.2-.7Z"/>
      <path class="cls-2" d="M155.4,56.5c-3.2,0-5.3-1-7-3-.5-.6-.3-.9.2-1.2,2.5-1.9,5.3-2.7,8.3-1.4,1.3.6,2.4,1.6,3.6,2.4.5.4.4.9-.1,1.4-1.6,1.3-3.4,2-4.9,1.9ZM158.6,53.8c-1.5-2.1-6.5-2.5-8.2-.7,1.4,1.8,5.2,2.7,8.2.7Z"/>
      <path class="cls-2" d="M181.5,15.2c0,3-1.2,5-3.1,6.6-.4.4-.7.4-1.2,0-3.4-2.7-4-7.3-1.1-10.7,1.9-2.3,2.3-2.2,4.1.2.9,1.3,1.4,2.7,1.3,3.9ZM177.8,20.1c2.7-1.8,3.1-6.2.8-8.4-.5-.4-.7-.3-1.1.1-2.1,2.5-2.4,5.7.3,8.3Z"/>
      <path class="cls-2" d="M156.1,37.3c0,2.1-.5,2.5-2.2,2.1-2.9-.7-5-2.4-6-5.2-.4-1.1-.4-2.4-.4-3.5,0-.8.6-1,1.3-.9,3,.5,5.9,2.4,6.9,5.8.2.7.3,1.4.4,1.8ZM149,31.6c-.6,2.8,3.1,6.4,5.5,5.9-.6-3.5-2.7-5.8-5.5-5.9Z"/>
      <path class="cls-2" d="M204.7,47.8c-1-.2-2-.4-3-.7-.8-.2-.8-.7-.6-1.3.8-2.5,4-5,6.6-5.1,1.4,0,2.8.3,4.2.5.8.1.9.7.6,1.4-1.1,2.5-3.8,5.1-7.8,5.1ZM203,45.8c2.3,1.1,6.5-.4,7.7-3.1-2.2-1.3-7.1.7-7.7,3.1Z"/>
      <path class="cls-2" d="M151.4,47.8c-3.5-.1-6-1.8-7.5-4.9-.6-1.2-.5-1.4.8-1.8,4-1.3,7.9.3,9.7,3.4.3.5.6,1,.7,1.6,0,.3-.2.8-.5.9-1.1.3-2.2.5-3.3.8ZM145.5,42.7c1.1,2.8,6,4.4,7.7,2.9-1.8-2.8-5-4-7.7-2.9Z"/>
      <path class="cls-2" d="M208.7,31.8c0,3.3-2.4,6.5-5.7,7.3,0,0-.1,0-.2,0-2.9,1-3-.1-2.6-2.4.6-4.1,3.6-6.4,7.2-7,.7-.1,1.3.2,1.3,1.1,0,.3,0,.7,0,1ZM207.1,31.7c-.1,0-.2,0-.3,0-2.4.3-5,3-5.2,5.5,0,.7.4.7.9.6.7-.2,1.3-.5,1.9-.9,1.7-.9,3-3.4,2.7-5.1Z"/>
      <path class="cls-2" d="M189.2,37.5c-2.3,0-2.6-.4-2.2-2.2.7-2.9,2.4-4.9,5.2-5.9.9-.3,1.9-.5,2.9-.5,1.3,0,1.7.5,1.4,1.8-.5,2.8-2,4.9-4.7,6-1,.4-2.2.6-2.8.7ZM188.7,35.8c3,.4,6.5-2.8,6.1-5.1-2.9-.3-6.1,2.3-6.1,5.1Z"/>
      <path class="cls-2" d="M161.4,29.6c3.5.2,5.7,2,7,5.1.3.8.3,1.7.4,2.5,0,.9-.8.9-1.4.9-2.8.2-6.1-1.7-7.3-4.3-.4-.8-.7-1.7-.9-2.6-.3-1.4,0-1.6,1.3-1.6.3,0,.6,0,.9,0ZM167.1,36.2c0-3-4-5.6-6.1-4.9-.5,2.3,3.6,5.9,6.1,4.9Z"/>
      <path class="cls-2" d="M183.4,28.9c-1.5,0-1.6,0-1.5-1.5.2-3.7,3.5-6.1,6.6-6.1.6,0,1,.2,1,1,.2,3.4-2.8,6.6-6.1,6.7ZM187.7,23.2c-2-.5-4.3,2-4.2,4.1,2.6-.4,4.2-1.9,4.2-4.1Z"/>
      <path class="cls-2" d="M174,29.2c-3.1.9-6.3-1.3-7.2-3.9,0-.2-.1-.4-.1-.5,0-.8,0-1.7-.1-2.5.9,0,1.9-.2,2.8,0,3.1.9,5.1,3.4,4.7,6.9ZM172.5,27.8c-.4-2.4-2.3-4-4.4-4-.3,1.9,2.1,4.1,4.4,4Z"/>
      <path class="cls-2" d="M211.3,38.8c-.6-.1-1.3-.3-1.9-.4-1.1-.3-.9-.9-.5-1.7,1.4-2.5,4.3-3.7,7.1-2.5.6.3.8.6.5,1.3-.9,2-2.8,3.2-5.1,3.3ZM214.3,35.7c-1.7-.4-2.9,0-3.6,1.3,1.1.4,2.7-.2,3.6-1.3Z"/>
      <path class="cls-2" d="M144.9,38.8c-2.3-.1-4.3-1.4-5.1-3.5,0-.2,0-.8.3-.9,2.4-1.6,6.7,0,7.5,2.8,0,.3-.2.9-.5,1-.7.3-1.5.4-2.2.6ZM145.7,37.2c-1-1.5-2.2-1.9-3.8-1.4,1,1.2,2.3,1.2,3.8,1.4Z"/>
      <path class="cls-2" d="M212.9,47.4c1.3-.1,2.4.4,3.5,1.3.5.4.6.8.2,1.3-2,2.2-5.4,2.7-7.9.4-.4-.4-.5-.7,0-1.2,1-1.1,2.5-1.8,4.4-1.8ZM214.7,49.5c-1.5-.6-2.8-.7-4.1.1,1,.8,2.7.7,4.1-.1Z"/>
      <path class="cls-2" d="M143.8,52c-1.4-.3-2.8-.6-3.9-1.8-.5-.5-.5-.9,0-1.5,2.1-2,6.3-1.7,7.9.7.1.2,0,.7-.1.9-1,1.2-2.4,1.5-3.9,1.7ZM145.7,49.7c-1.4-.7-2.7-1-4.1,0,1.3.8,3.1.8,4.1,0Z"/>
      <path class="cls-2" d="M151.3,23.4c0-2.3.6-2.6,2.5-1.5,2.3,1.2,3.4,3.6,2.7,6.2,0,.2-.5.6-.7.6-2.8-.5-4.5-2.7-4.5-5.2ZM155,26.5c.3-1.4-.5-2.7-1.9-3-.3,1.4.5,2.7,1.9,3Z"/>
      <path class="cls-2" d="M204.9,24.6c0,2.6-1.9,5-4.3,5.4-.3,0-.8-.3-.9-.6-.8-2.4.2-4.8,2.5-6.1.5-.3,1.1-.5,1.6-.6.2,0,.7.2.8.5.2.5.2,1,.3,1.3ZM201,28c1.5-.4,2.4-1.8,2.1-3.2-1.4.5-1.9,1.3-2.1,3.2Z"/>
      <path class="cls-2" d="M170.4,20.4c-3.3,0-5.8-3.4-4.9-6.3.2-.7.6-1.1,1.4-.8,2.4.7,4.1,3,4,5.4,0,.6-.3,1.2-.4,1.7ZM169.3,18.5c-.1-1.6-.8-2.7-2.2-3.4-.2,1.7.8,3.2,2.2,3.4Z"/>
      <path class="cls-2" d="M162.2,24.4c-3,0-5.6-2.9-4.7-6.6.2-.8.8-.7,1.4-.5,2.8.9,4.8,4.1,3.3,7.1ZM158.9,19.1c-.2,1.5.6,2.8,2,3.3.2-1.6-.3-2.5-2-3.3Z"/>
      <path class="cls-2" d="M191.8,22.5c0-2.6,1.9-5,4.1-5.3.8-.1,1,.1,1.2.9.6,3.1-1.2,5.6-4.1,6.2-.3,0-.8-.2-.9-.5-.2-.4-.2-1-.3-1.3ZM195.6,19.1c-1.6.6-2.2,1.7-2,3.3,1.5-.7,2.1-1.7,2-3.3Z"/>
      <path class="cls-2" d="M184.4,19.6c-2-2.9.4-7.1,3.6-7.4.3,0,.9.6,1,1,.4,2-.3,3.7-1.8,4.9-.8.7-1.9,1-2.8,1.5ZM185.2,17.5c1.5-.6,2.5-2,2.2-3.4-1.5.4-2.5,1.9-2.2,3.4Z"/>
      <path class="cls-2" d="M174,43.9c0-1.7.5-3,1.5-4,1.7-1.8,4.4-1.7,5.8.3,1.5,2.1,1.6,4.3.4,6.6-.8,1.4-2.4,2.4-4,2.1-1.9-.3-3-1.6-3.5-3.3-.2-.6-.3-1.3-.3-1.7ZM181.6,43.7c-.3-.8-.4-1.6-.8-2.4-.8-1.6-2.7-2.1-3.8-1.2-1.2,1.1-1.9,2.4-1.7,4,.2,2.4,2,3.9,4,3.3,1.2-.4,2.1-2.1,2.3-3.8Z"/>
    </g>
  </g>
</svg>