<svg width="512" height="512" viewBox="0 0 512 512" fill="none" xmlns="http://www.w3.org/2000/svg">
<g clip-path="url(#clip0_451_17)">
<path d="M256 512C114.615 512 0 397.385 0 256C0 114.615 114.615 0 256 0C397.385 0 512 114.615 512 256C512 397.385 397.385 512 256 512Z" fill="#FF9A3E"/>
<path d="M320 142.933C328.533 151.467 328.533 164.267 320 172.8L236.8 256L320 339.2C328.533 347.733 328.533 360.533 320 369.067C311.467 377.6 298.667 377.6 290.133 369.067L192 270.933C183.467 262.4 183.467 249.6 192 241.067L290.133 142.933C298.667 134.4 311.467 134.4 320 142.933Z" fill="white"/>
</g>
<defs>
<clipPath id="clip0_451_17">
<rect width="512" height="512" fill="white" transform="matrix(-1 0 0 1 512 0)"/>
</clipPath>
</defs>
</svg>
