<?xml version="1.0" encoding="UTF-8"?>
<svg id="Objects" xmlns="http://www.w3.org/2000/svg" version="1.1" viewBox="0 0 276.65 115.15">
  <defs>
    <style>
      .cls-1 {
        fill: #1d1d1b;
      }

      .cls-1, .cls-2, .cls-3 {
        stroke-width: 0px;
      }

      .cls-2 {
        fill: #d4d4d4;
      }

      .cls-3 {
        fill: #fff;
      }
    </style>
  </defs>
  <path class="cls-1" d="M212.24,90.3c-61.45,0-123.76-1.81-185.2-5.39l-5.63-.33,1.72-4.6c7.15-19.09,6.42-38.45-2.16-57.53l-2.15-4.79,5.97-.35c61.32-3.57,126.03,5.5,188.93,5.5,12.54,0,25.25,1.07,37.79,1.22l6.31.07-2.24,5.05c-10.01,22.57-10.74,33.44-2.17,55.97l1.86,4.89-6,.07c-12.29.14-24.75.22-37.04.22Z"/>
  <path class="cls-3" d="M250.19,87.35c-74.58.87-149.15-.87-223.73-5.22,7.56-20.23,6.81-40.45-2.26-60.65,74.68-4.36,152.3,5.79,228.25,6.67-10.52,23.75-11.27,35.48-2.26,59.2Z"/>
  <path class="cls-2" d="M29.45,22c16.02-.97,32.04-1.8,48.06-2.51v-.22c-17.77.76-35.53,1.66-53.3,2.73,8.77,20.24,9.5,40.5,2.19,60.78,6.2.37,12.4.72,18.61,1.05v-.3c-4.45-.25-8.91-.49-13.36-.76,7.32-20.28,6.59-40.54-2.19-60.78Z"/>
  <polyline class="cls-3" points="63.59 65.94 83.77 108.2 46.79 82.65"/>
  <path class="cls-1" d="M79.93,85.3c1.82,3.46-5.07-1.71-3.28,1.77l-2.11-.39,5.33,10.44,5.29,10.46,2.47,4.88-4.72-3.06-9.45-6.12c-1.57-1.03-3.13-2.07-4.66-3.14-.77-.53-1.54-1.07-2.29-1.62-.76-.55-1.53-1.09-2.27-1.65-1.5-1.12-3.01-2.22-4.49-3.37-1.48-1.14-2.97-2.27-4.43-3.45-.73-.59-1.47-1.16-2.19-1.76l-2.17-1.79c-1.43-1.21-2.86-2.42-4.25-3.7l.22-.29c1.7.85,3.35,1.77,5,2.69l2.45,1.41c.82.46,1.62.96,2.43,1.44,1.62.95,3.22,1.95,4.82,2.94,1.6.99,3.17,2.02,4.75,3.02.79.5,1.57,1.03,2.35,1.54.79.51,1.56,1.04,2.33,1.57,1.55,1.06,3.07,2.14,4.58,3.25l9.05,6.65-2.26,1.82-4.81-10.68-4.77-10.69-.37-1.99c-1.58-3.57,4.06,3.75,2.51.17l4.96-.33Z"/>
</svg>