<?xml version="1.0" encoding="UTF-8"?>
<svg id="Objects" xmlns="http://www.w3.org/2000/svg" version="1.1" viewBox="0 0 357.05 137.87">
  <defs>
    <style>
      .cls-1 {
        fill: #1d1d1b;
      }

      .cls-1, .cls-2 {
        stroke-width: 0px;
      }

      .cls-2 {
        fill: #fff;
      }
    </style>
  </defs>
  <path class="cls-1" d="M55.82,64.16c-.09,6.81,13.14,13.88,37.87,19.24,24.32,5.39,60.13,9.06,95.71,10.02,35.57,1.16,71.68-.78,95.97-6.23,24.75-5.29,37.7-14.1,37.61-23.05.83-8.95-11.5-17.77-36.27-23.07-24.27-5.45-60.99-7.37-97.31-6.19-36.33.98-72.76,4.66-97.06,10.05-24.75,5.35-37.37,12.42-36.53,19.23Z"/>
  <path class="cls-2" d="M60.07,64.16c-.09,6.4,12.72,13.05,36.66,18.09,23.54,5.07,58.21,8.52,92.65,9.42,34.44,1.09,69.38-.73,92.9-5.86,23.96-4.98,36.49-13.26,36.41-21.67.81-8.41-11.13-16.71-35.11-21.69-23.5-5.13-59.04-6.93-94.2-5.82-35.17.92-70.43,4.38-93.95,9.45-23.96,5.03-36.18,11.68-35.36,18.08Z"/>
  <path class="cls-1" d="M229.01,77.96c3.55,1.43,7.08,2.87,10.59,4.32l10.56,4.34,10.51,4.37,10.46,4.39,4.88,2.05-7-.35-14-.7c-2.33-.12-4.65-.25-6.96-.41-1.15-.08-2.31-.15-3.45-.24-1.14-.09-2.3-.17-3.43-.27-2.28-.2-4.57-.38-6.83-.59-2.26-.21-4.54-.42-6.78-.66-1.12-.12-2.26-.22-3.37-.35l-3.36-.38c-2.23-.27-4.46-.53-6.65-.85l.16-.23c2.43-.02,4.82.02,7.21.05l3.57.08c1.19.02,2.37.07,3.55.1,2.37.06,4.72.16,7.07.25,2.35.09,4.68.21,7.02.32,1.17.05,2.33.12,3.49.18,1.17.06,2.32.13,3.48.21,2.31.14,4.61.31,6.9.49l13.71,1.12-2.12,1.7-9.95-4.66-9.91-4.68-9.86-4.71c-3.29-1.57-6.57-3.14-9.83-4.72l.36-.19Z"/>
  <polyline class="cls-2" points="234.16 76.2 276.01 97.44 215.26 90.3"/>
</svg>