<svg width="512" height="512" viewBox="0 0 512 512" fill="none" xmlns="http://www.w3.org/2000/svg">
<g clip-path="url(#clip0_451_14)">
<path d="M256 512C397.385 512 512 397.385 512 256C512 114.615 397.385 0 256 0C114.615 0 0 114.615 0 256C0 397.385 114.615 512 256 512Z" fill="#FF9A3E"/>
<path d="M192 142.933C183.467 151.467 183.467 164.267 192 172.8L275.2 256L192 339.2C183.467 347.733 183.467 360.533 192 369.067C200.533 377.6 213.333 377.6 221.867 369.067L320 270.933C328.533 262.4 328.533 249.6 320 241.067L221.867 142.933C213.333 134.4 200.533 134.4 192 142.933Z" fill="white"/>
</g>
<defs>
<clipPath id="clip0_451_14">
<rect width="512" height="512" fill="white"/>
</clipPath>
</defs>
</svg>
