<?xml version="1.0" encoding="UTF-8"?>
<svg xmlns="http://www.w3.org/2000/svg" xmlns:xlink="http://www.w3.org/1999/xlink" width="256px" height="256px" viewBox="0 0 256 256" version="1.1">
<g id="surface1">
<path style=" stroke:none;fill-rule:nonzero;fill:rgb(100%,60.392157%,24.313725%);fill-opacity:1;" d="M 253.398438 128.800781 C 253.398438 168.179688 221.476562 200.101562 182.101562 200.101562 C 142.722656 200.101562 110.800781 168.179688 110.800781 128.800781 C 110.800781 89.421875 142.722656 57.5 182.101562 57.5 C 221.476562 57.5 253.398438 89.421875 253.398438 128.800781 Z M 253.398438 128.800781 "/>
<path style=" stroke:none;fill-rule:nonzero;fill:rgb(1.176471%,28.627451%,14.509804%);fill-opacity:1;" d="M 236.300781 163.898438 C 235.898438 164.199219 235.699219 164.300781 235.5 164.5 C 229.300781 169.601562 220.601562 167.898438 216.800781 160.898438 C 213 154 215.199219 144.601562 221.5 140.5 C 223.898438 139 226.5 138.601562 229.199219 138.699219 C 231.601562 138.800781 233.800781 139.5 236 140.5 C 236.199219 140.5 236.5 140.699219 236.5 140.601562 C 237.601562 139.300781 239.101562 140.199219 240.398438 140 C 241.199219 139.898438 242.101562 140 242.898438 140 C 243.800781 140 244.101562 140.300781 244.101562 141.300781 C 243.898438 148.601562 243.800781 155.800781 243.601562 163.101562 C 243.601562 165.898438 243.398438 168.699219 243.300781 171.5 C 243.300781 171.898438 243.300781 172.300781 243.300781 172.898438 C 245.601562 173.398438 248 173.800781 250.300781 174.300781 C 250 176.800781 249.800781 179.300781 249.601562 181.800781 C 247.398438 181.398438 245.199219 181 243 180.601562 C 242.601562 183.101562 242.398438 185.601562 241.898438 188 C 241.398438 190.898438 240.5 193.699219 239.101562 196.300781 C 234.5 204.699219 224.300781 204.398438 219 198.101562 C 216.5 195.199219 215 191.699219 215.5 187.800781 C 216.101562 183.398438 218.199219 179.800781 221.601562 176.898438 C 225 174 229.101562 172.699219 233.5 172.398438 C 236.199219 172.199219 236.199219 172.300781 236.199219 169.601562 C 236.199219 167.898438 236.199219 166.199219 236.199219 164.199219 Z M 226.898438 159.199219 C 227.800781 159 228.699219 158.898438 229.5 158.5 C 233 156.800781 234.800781 153.800781 236 150.300781 C 236 150.101562 236 149.699219 235.699219 149.5 C 233.699219 147.898438 231.5 146.699219 228.898438 146.601562 C 226.5 146.5 223.601562 147.601562 222.601562 150.199219 C 221.800781 152.300781 221.800781 154.300781 222.699219 156.398438 C 223.5 158.199219 224.800781 159.199219 226.898438 159.199219 Z M 235.898438 179.800781 C 232.800781 179.601562 230.300781 180.800781 227.800781 182.101562 C 226 183 224.699219 184.398438 224 186.300781 C 223 188.800781 224.101562 192 226.601562 193.199219 C 229.101562 194.5 232.199219 193.601562 233.601562 191.199219 C 235.601562 187.699219 235.800781 183.800781 235.898438 179.800781 Z M 235.898438 179.800781 "/>
<path style=" stroke:none;fill-rule:nonzero;fill:rgb(1.176471%,28.627451%,14.509804%);fill-opacity:1;" d="M 7 127.101562 C 9.199219 127.300781 11.199219 127.601562 13.199219 127.800781 C 14.101562 127.800781 13.800781 128.601562 13.699219 129 C 13.5 131 13.199219 133 13.101562 134.898438 C 12.800781 139 12.601562 143.199219 12.398438 147.300781 C 12.199219 150.699219 12.300781 154 13.199219 157.300781 C 13.699219 159 14.398438 160.699219 15.300781 162.101562 C 16.898438 164.5 19 164.5 20.898438 162.300781 C 22.699219 160.199219 23.398438 157.601562 24 155 C 25.199219 150 25.601562 144.800781 25.800781 139.699219 C 25.898438 136.699219 26 133.699219 26.199219 130.601562 L 33 130.601562 C 33 132.398438 33 134.101562 33 135.699219 C 33.300781 142.398438 33.898438 149.101562 35.5 155.601562 C 36.101562 157.898438 36.898438 160.199219 38.699219 161.898438 C 40.601562 163.699219 42.699219 163.699219 44.5 161.800781 C 46 160.199219 47 158.300781 47.300781 156.199219 C 47.898438 152.5 48.601562 148.699219 48.601562 144.898438 C 48.601562 138.898438 48.300781 132.800781 48.101562 126.601562 C 50.101562 126.398438 52.300781 126.300781 54.699219 126.101562 C 55 128.800781 55.5 131.300781 55.601562 133.898438 C 55.800781 138.398438 55.898438 142.800781 55.800781 147.300781 C 55.699219 152.199219 54.800781 157 52.898438 161.601562 C 51.800781 164.199219 50.300781 166.601562 48 168.398438 C 43 172.300781 36.398438 171.199219 32.601562 165.699219 C 31.199219 163.699219 30.199219 161.398438 29 159.300781 C 28.199219 160.800781 27.5 162.601562 26.398438 164.199219 C 25.300781 165.800781 24.101562 167.398438 22.699219 168.5 C 18.800781 171.398438 14.101562 170.800781 10.699219 167.300781 C 8 164.5 6.898438 161 6.199219 157.398438 C 4.898438 150.800781 5.101562 144.101562 5.601562 137.5 C 5.898438 134.101562 6.300781 130.601562 6.699219 127 Z M 7 127.101562 "/>
<path style=" stroke:none;fill-rule:nonzero;fill:rgb(1.176471%,28.627451%,14.509804%);fill-opacity:1;" d="M 117.199219 169.898438 C 117 165.699219 116.699219 161.5 116.601562 157.199219 C 116.5 152.5 116.398438 147.699219 116.601562 143 C 116.699219 138.5 117.101562 134 117.398438 129.5 C 117.398438 128.601562 117.398438 127.699219 117.398438 126.800781 C 117.398438 126.101562 117.699219 125.800781 118.398438 125.898438 C 120.199219 126.101562 122 126.398438 123.898438 126.601562 C 124.601562 126.601562 124.800781 127.101562 124.800781 127.699219 C 124.601562 130.601562 124.398438 133.5 124.199219 136.398438 C 124 139.5 123.898438 142.601562 123.800781 145.898438 C 125.398438 145.300781 126.800781 144.699219 128.199219 144.300781 C 132.300781 143.199219 136.398438 143.101562 140 145.800781 C 143.199219 148.199219 144.398438 151.601562 143.800781 155.398438 C 142.699219 161.898438 138.398438 165.699219 132.5 168 C 129.101562 169.300781 125.699219 169.800781 122.101562 169.898438 C 120.5 169.898438 118.898438 169.898438 117.199219 169.898438 Z M 123.898438 162.898438 C 124.199219 162.898438 124.300781 163 124.398438 163 C 127.601562 162.5 130.699219 161.699219 133.300781 159.601562 C 135.199219 158 136.601562 156.101562 136.398438 153.300781 C 136.398438 152.199219 135.699219 151.5 134.601562 151.398438 C 133.601562 151.398438 132.5 151.300781 131.5 151.398438 C 128.699219 151.699219 126.300781 153 124.300781 155 C 124.101562 155.199219 123.800781 155.601562 123.800781 155.898438 C 123.800781 158.300781 123.800781 160.601562 123.800781 163 Z M 123.898438 162.898438 "/>
<path style=" stroke:none;fill-rule:nonzero;fill:rgb(1.176471%,28.627451%,14.509804%);fill-opacity:1;" d="M 207.898438 168.101562 C 207.898438 168.101562 207.898438 167.898438 207.898438 167.800781 C 207.800781 163.601562 207.699219 159.300781 207.398438 155.101562 C 207.300781 153.199219 206.898438 151.398438 206.398438 149.601562 C 205.800781 147.300781 204.199219 146.898438 201.898438 148.199219 C 199.699219 149.5 197.898438 151.300781 196.300781 153.300781 C 192.898438 157.601562 190.5 162.300781 189.199219 167.601562 C 188.898438 169 188.199219 169.199219 187.101562 169.199219 C 185.699219 169.199219 184.398438 169.601562 183 169.898438 C 182.300781 170 181.898438 170 181.699219 169.101562 C 180.800781 163.300781 180.398438 157.398438 180.5 151.601562 C 180.5 147.601562 181 143.5 181.300781 139.5 C 181.300781 138.898438 181.601562 138.601562 182.199219 138.699219 C 184 138.898438 185.898438 139.101562 187.699219 139.300781 C 188.5 139.300781 188.601562 139.699219 188.601562 140.398438 C 188.398438 143.398438 188.199219 146.300781 188 149.300781 C 188 150.199219 188 151.101562 187.898438 152.101562 C 189 150.699219 189.898438 149.5 191 148.300781 C 193.800781 145.101562 197 142.300781 201 140.601562 C 206.601562 138.101562 211.800781 140.5 213.398438 146.398438 C 214.199219 149.101562 214.601562 151.898438 214.800781 154.699219 C 215.101562 158.898438 215.101562 163.101562 215.199219 167.300781 C 215.199219 168.601562 215 168.800781 213.800781 168.699219 C 211.898438 168.601562 209.898438 168.398438 208 168.300781 Z M 207.898438 168.101562 "/>
<path style=" stroke:none;fill-rule:nonzero;fill:rgb(1.176471%,28.627451%,14.509804%);fill-opacity:1;" d="M 152.5 158.699219 C 152.699219 160.5 154.5 162.199219 156.398438 162.601562 C 159 163 161.5 162.601562 163.699219 161.101562 C 164.601562 160.5 165.101562 160.601562 165.800781 161.398438 C 166.800781 162.601562 167.800781 163.800781 168.898438 165 C 169.398438 165.5 169.300781 166 168.800781 166.398438 C 166.898438 167.800781 164.800781 168.898438 162.5 169.5 C 159.898438 170.101562 157.199219 170.199219 154.601562 169.5 C 150.101562 168.398438 147.199219 165.5 145.699219 161.199219 C 143.199219 153.800781 146.898438 145.601562 153.699219 142.5 C 157.199219 140.898438 160.699219 140.101562 164.398438 141.800781 C 167.101562 143.101562 169 146.800781 168.601562 149.800781 C 168 154 165.300781 156.398438 161.5 157.699219 C 158.800781 158.699219 156.101562 158.898438 153.300781 158.699219 C 153.101562 158.699219 152.800781 158.699219 152.5 158.699219 Z M 153.699219 151.398438 C 155.101562 152 159.5 151.199219 160.5 150.199219 C 161.101562 149.601562 160.800781 149 159.898438 148.699219 C 157.699219 148.101562 154.800781 149.300781 153.699219 151.398438 Z M 153.699219 151.398438 "/>
<path style=" stroke:none;fill-rule:nonzero;fill:rgb(1.176471%,28.627451%,14.509804%);fill-opacity:1;" d="M 81 166.800781 C 75.898438 170.601562 70.5 172 64.601562 169.699219 C 58.800781 167.5 55.699219 160.800781 57.101562 154.398438 C 58.699219 147.398438 64.398438 142.601562 71.5 142.300781 C 75.601562 142.101562 78.398438 143.898438 79.699219 147.5 C 80.898438 150.800781 79.699219 154.5 76.601562 156.800781 C 73.5 159.101562 69.898438 159.699219 66.101562 159.601562 C 65.5 159.601562 64.898438 159.601562 64.300781 159.601562 C 64.300781 159.601562 64.199219 159.601562 64.101562 159.601562 C 64.101562 161.101562 65.300781 162.800781 67 163.601562 C 69.398438 164.601562 71.800781 164.199219 74.101562 163.199219 C 74.898438 162.800781 75.699219 162.398438 76.601562 161.800781 C 78 163.398438 79.398438 165 80.898438 166.800781 Z M 65.101562 152.800781 C 67.101562 153.199219 70.398438 152.800781 71.800781 151.898438 C 72.300781 151.601562 72.699219 151 72.800781 150.398438 C 72.800781 150.101562 72.101562 149.5 71.601562 149.398438 C 69.300781 148.800781 66 150.5 65 152.800781 Z M 65.101562 152.800781 "/>
<path style=" stroke:none;fill-rule:nonzero;fill:rgb(1.176471%,28.627451%,14.509804%);fill-opacity:1;" d="M 14.699219 97.199219 C 16.601562 97.199219 18.5 97.199219 20.398438 97.199219 C 20.699219 97.199219 21.101562 97.699219 21.300781 98 C 24.398438 102.601562 27.398438 107.199219 30.398438 111.898438 C 30.5 112.101562 30.699219 112.199219 31 112.601562 L 31 97.199219 L 37.199219 97.199219 L 37.199219 122.398438 C 35.300781 122.398438 33.398438 122.398438 31.601562 122.398438 C 31.199219 122.398438 30.800781 122 30.5 121.601562 C 27.398438 117 24.398438 112.398438 21.398438 107.800781 C 21.398438 107.699219 21.199219 107.5 20.898438 107.199219 L 20.898438 122.398438 L 14.699219 122.398438 Z M 14.699219 97.199219 "/>
<path style=" stroke:none;fill-rule:nonzero;fill:rgb(1.176471%,28.627451%,14.509804%);fill-opacity:1;" d="M 63.398438 122.5 C 61.5 122.5 59.699219 122.5 57.898438 122.5 C 57.5 122.5 57.101562 122.101562 56.800781 121.699219 C 53.699219 117.101562 50.699219 112.601562 47.699219 108 C 47.601562 107.800781 47.398438 107.601562 47.101562 107.5 L 47.101562 122.5 L 41 122.5 L 41 97.300781 C 42.898438 97.300781 44.800781 97.300781 46.601562 97.300781 C 46.898438 97.300781 47.199219 97.699219 47.398438 97.898438 C 50.398438 102.5 53.398438 107.101562 56.5 111.699219 C 56.699219 112 56.898438 112.199219 57.300781 112.800781 L 57.300781 97.398438 L 63.398438 97.398438 L 63.398438 122.601562 Z M 63.398438 122.5 "/>
<path style=" stroke:none;fill-rule:nonzero;fill:rgb(1.176471%,28.627451%,14.509804%);fill-opacity:1;" d="M 92.199219 113.101562 L 92.199219 122.398438 L 86.101562 122.398438 L 86.101562 97.398438 C 86.101562 97.398438 86.199219 97.300781 86.300781 97.300781 C 90.300781 97.300781 94.398438 97.300781 98.398438 97.5 C 102.199219 97.800781 105 100.300781 105.5 103.601562 C 106.199219 107.601562 104.5 110.699219 100.800781 112.300781 C 100.601562 112.300781 100.5 112.5 100.101562 112.601562 C 102 115.898438 103.898438 119.101562 105.800781 122.5 C 103.5 122.5 101.398438 122.5 99.300781 122.5 C 99 122.5 98.699219 122.101562 98.5 121.800781 C 97 119.199219 95.5 116.601562 94.101562 113.898438 C 93.699219 113.101562 93.199219 112.898438 92.199219 113.199219 Z M 92.300781 108.5 C 94 108.5 95.699219 108.601562 97.300781 108.5 C 98.699219 108.300781 99.398438 107.199219 99.398438 105.601562 C 99.398438 104 98.800781 102.800781 97.398438 102.601562 C 95.800781 102.300781 94.101562 102.398438 92.300781 102.300781 Z M 92.300781 108.5 "/>
<path style=" stroke:none;fill-rule:nonzero;fill:rgb(1.176471%,28.627451%,14.509804%);fill-opacity:1;" d="M 113.800781 161.5 C 114.5 163.199219 115.199219 164.800781 115.898438 166.5 C 115.898438 166.699219 115.898438 167.101562 115.800781 167.300781 C 113.398438 169.699219 110 171.800781 106.101562 170.300781 C 103.199219 169.199219 101.5 166.800781 100.398438 164.101562 C 98.800781 160.101562 98.601562 155.800781 98.601562 151.5 C 98.601562 146 99.300781 140.5 100.300781 135 C 100.800781 131.898438 101.398438 128.699219 102 125.601562 C 102 125.398438 102.101562 125.199219 102.199219 124.898438 C 104.398438 125.199219 106.601562 125.601562 108.898438 125.898438 C 108.398438 128.5 107.898438 130.898438 107.5 133.300781 C 106.101562 141.101562 104.898438 148.898438 105.601562 156.800781 C 105.800781 158.898438 106.199219 160.898438 107.300781 162.699219 C 108.199219 164.101562 109.300781 164.5 110.699219 163.699219 C 111.800781 163.101562 112.699219 162.300781 113.800781 161.5 Z M 113.800781 161.5 "/>
<path style=" stroke:none;fill-rule:nonzero;fill:rgb(1.176471%,28.627451%,14.509804%);fill-opacity:1;" d="M 97.800781 161.601562 C 98.5 163.300781 99.199219 164.898438 99.898438 166.601562 C 99.898438 166.800781 99.898438 167.199219 99.898438 167.300781 C 97.398438 169.800781 93.898438 171.898438 89.898438 170.300781 C 87.300781 169.199219 85.699219 167.199219 84.601562 164.699219 C 83 161.398438 82.699219 157.699219 82.601562 154.101562 C 82.300781 147.101562 83.199219 140.300781 84.5 133.5 C 85 130.699219 85.5 127.898438 86.101562 124.898438 C 88.398438 125.199219 90.601562 125.601562 92.898438 125.898438 C 92.398438 128.898438 91.800781 131.800781 91.300781 134.601562 C 90.300781 140.101562 89.398438 145.601562 89.398438 151.199219 C 89.398438 154 89.699219 156.800781 90.101562 159.601562 C 90.300781 160.699219 90.800781 161.898438 91.398438 162.898438 C 92.101562 164.199219 93.300781 164.5 94.601562 163.800781 C 95.699219 163.199219 96.699219 162.398438 97.898438 161.5 Z M 97.800781 161.601562 "/>
<path style=" stroke:none;fill-rule:nonzero;fill:rgb(1.176471%,28.627451%,14.509804%);fill-opacity:1;" d="M 67.300781 122.398438 L 67.300781 97.300781 L 82.699219 97.300781 L 82.699219 102.199219 C 80.699219 102.199219 78.800781 102.199219 76.800781 102.199219 C 75.699219 102.199219 74.199219 101.898438 73.699219 102.5 C 73.101562 103.101562 73.5 104.5 73.5 105.601562 C 73.5 106.101562 73.5 106.601562 73.5 107.300781 L 81.601562 107.300781 L 81.601562 112 L 73.5 112 C 73.5 113.800781 73.5 115.398438 73.5 117 C 73.5 117.199219 74.101562 117.601562 74.398438 117.601562 C 76.699219 117.601562 79.101562 117.601562 81.398438 117.601562 C 81.800781 117.601562 82.199219 117.601562 82.699219 117.601562 L 82.699219 122.398438 Z M 67.300781 122.398438 "/>
<path style=" stroke:none;fill-rule:nonzero;fill:rgb(1.176471%,28.627451%,14.509804%);fill-opacity:1;" d="M 171.601562 142.101562 C 173.898438 142.398438 176 142.601562 178.101562 142.898438 C 178.300781 142.898438 178.601562 143.398438 178.601562 143.699219 C 178.398438 145.398438 178.199219 147.101562 178 148.800781 C 177.199219 154.800781 177.300781 160.898438 178 166.898438 C 178 167.699219 178 168.5 178.101562 169.5 C 177 169.699219 175.898438 169.800781 174.898438 169.898438 C 174.199219 169.898438 173.398438 169.898438 172.601562 169.898438 C 170.898438 170 170.800781 169.898438 170.699219 168.199219 C 170.5 165.699219 170.101562 163.300781 170.199219 160.800781 C 170.199219 156.699219 170.398438 152.601562 170.699219 148.5 C 170.800781 146.398438 171.300781 144.300781 171.601562 142 Z M 171.601562 142.101562 "/>
<path style=" stroke:none;fill-rule:nonzero;fill:rgb(1.176471%,28.627451%,14.509804%);fill-opacity:1;" d="M 10.800781 97.199219 L 10.800781 122.5 C 8.898438 122.5 7 122.5 5.101562 122.5 C 5 122.5 4.800781 122.199219 4.699219 122.101562 C 4.699219 121.898438 4.699219 121.601562 4.699219 121.300781 C 4.699219 113.800781 4.699219 106.300781 4.699219 98.699219 C 4.699219 97.300781 4.699219 97.300781 6.199219 97.300781 C 7.699219 97.300781 9.199219 97.300781 10.800781 97.300781 Z M 10.800781 97.199219 "/>
<path style=" stroke:none;fill-rule:nonzero;fill:rgb(1.176471%,28.627451%,14.509804%);fill-opacity:1;" d="M 178.800781 141.101562 C 176.699219 140.800781 174.800781 140.5 173 140.199219 C 172.398438 140.199219 172.300781 139.800781 172.398438 139.300781 C 172.800781 137.398438 173.199219 135.601562 173.5 133.699219 C 173.601562 133.101562 173.898438 132.898438 174.5 132.898438 C 176.199219 133.101562 178 133.300781 179.699219 133.601562 C 180 133.601562 180.601562 134.199219 180.601562 134.398438 C 180.300781 136.398438 180 138.398438 179.601562 140.398438 C 179.601562 140.699219 179.101562 141 178.898438 141.199219 Z M 178.800781 141.101562 "/>
<path style=" stroke:none;fill-rule:nonzero;fill:rgb(1.176471%,28.627451%,14.509804%);fill-opacity:1;" d="M 179.101562 129.699219 C 178.699219 130 178.601562 130.101562 178.398438 130.101562 C 174.800781 131 171.101562 131.800781 167.300781 131.5 C 165.101562 131.300781 163 131 161.101562 129.699219 C 161 129.699219 160.800781 129.601562 160.699219 129.5 C 159.800781 128.898438 158.898438 128.101562 159.199219 127.101562 C 159.5 126.199219 160.300781 125.199219 161.101562 124.800781 C 164.699219 123.398438 168.398438 122.300781 172.398438 123.101562 C 174.601562 123.5 174.199219 123.398438 174.898438 121.699219 C 175.5 120.398438 176.101562 119 176.5 117.601562 C 177.5 114.601562 177.199219 111.601562 175.898438 108.699219 C 174.898438 106.601562 173.800781 104.601562 173 102.5 C 171.601562 99 172.199219 95.601562 174.101562 92.398438 C 175.800781 89.699219 177.601562 87.101562 179.300781 84.398438 C 180 83.199219 180.5 81.898438 181 80.601562 C 181.101562 80.300781 181.199219 80.101562 181.398438 79.5 C 181.800781 80.199219 182 80.601562 182.199219 81.101562 C 183.5 84.601562 186 87.398438 188.101562 90.300781 C 189.5 92.199219 190.601562 94.300781 191 96.699219 C 191.5 99.300781 190.800781 101.601562 189.898438 103.898438 C 188.800781 106.898438 187.601562 109.800781 186.601562 112.800781 C 186.101562 114.398438 186.5 116.101562 187 117.699219 C 187.601562 119.398438 188.398438 121.101562 189.101562 122.800781 C 189.300781 123.398438 189.601562 123.398438 190.199219 123.398438 C 192.601562 123.398438 195 123.300781 197.398438 123.398438 C 199 123.398438 200.601562 123.699219 202.199219 124.101562 C 203.199219 124.398438 204.101562 125 204.898438 125.699219 C 205.898438 126.601562 205.800781 128.199219 204.699219 129.101562 C 203.101562 130.398438 201.199219 131.101562 199.199219 131.5 C 193.300781 132.800781 188 130.800781 182.898438 128.101562 C 179.699219 126.398438 176.5 124.898438 172.898438 124.398438 C 169.5 123.898438 166 123.898438 162.699219 125.199219 C 162.300781 125.398438 161.898438 125.699219 161.601562 126 C 160.398438 127 160.5 128.199219 161.898438 128.898438 C 162.800781 129.398438 163.898438 129.699219 164.800781 130 C 167.800781 131 170.800781 130.101562 173.800781 129.699219 C 175.101562 129.5 176.398438 129.398438 177.699219 129.300781 C 178 129.300781 178.300781 129.5 178.898438 129.699219 Z M 188.398438 123.699219 C 187.699219 122 186.898438 120.398438 186.300781 118.800781 C 185.699219 117 185.398438 115.199219 185.601562 113.300781 C 185.898438 110.398438 187.199219 107.800781 188.300781 105.101562 C 189.5 102.199219 190.898438 99.398438 189.800781 96.101562 C 189.398438 94.800781 188.699219 93.601562 188 92.5 C 186.101562 89.5 184 86.5 182 83.398438 C 181.800781 83.601562 181.601562 83.699219 181.601562 83.800781 C 179.398438 87.199219 177.101562 90.398438 175.101562 93.898438 C 173.398438 96.699219 173.300781 99.699219 174.699219 102.601562 C 175.5 104.300781 176.398438 105.800781 177.101562 107.5 C 178.398438 110.398438 179.300781 113.398438 178.300781 116.601562 C 177.699219 118.5 177 120.300781 176.300781 122.101562 C 176 122.898438 176 123.300781 176.898438 123.699219 C 177.699219 124 178.398438 124.5 179.199219 124.800781 C 183.601562 126.699219 187.601562 129.199219 192.398438 130.101562 C 196.300781 130.800781 200 130.101562 203.601562 128.601562 C 204.800781 128.101562 204.898438 126.699219 203.800781 126 C 203 125.398438 202.101562 124.898438 201.199219 124.699219 C 197.199219 123.699219 193.199219 123.898438 189.199219 125 C 188.101562 125.300781 187 125.300781 186 125 C 186 124.898438 186 124.699219 186 124.601562 C 186.800781 124.300781 187.699219 124 188.699219 123.699219 Z M 188.398438 123.699219 "/>
<path style=" stroke:none;fill-rule:nonzero;fill:rgb(1.176471%,28.627451%,14.509804%);fill-opacity:1;" d="M 203.898438 95.699219 C 203.898438 99.5 201 103.5 197.199219 104.800781 C 196.101562 105.199219 194.898438 105.398438 193.699219 105.601562 C 192.398438 105.800781 191.898438 105.300781 192.101562 103.898438 C 192.398438 102.199219 192.800781 100.5 193.601562 99 C 195.398438 95.800781 198.398438 94.101562 202 93.800781 C 203.898438 93.699219 203.898438 93.800781 203.800781 95.601562 Z M 193.898438 103.699219 C 198.199219 104 202.5 99.601562 202.199219 95.5 C 196.699219 96.601562 193.800781 99.398438 193.898438 103.699219 Z M 193.898438 103.699219 "/>
<path style=" stroke:none;fill-rule:nonzero;fill:rgb(1.176471%,28.627451%,14.509804%);fill-opacity:1;" d="M 161.699219 93.898438 C 166.800781 94.199219 171.699219 98.5 171.601562 104.398438 C 171.601562 105.398438 171.199219 105.800781 170.199219 105.699219 C 165.300781 105.398438 161.101562 102 160 97.300781 C 159.898438 96.800781 160 96.199219 159.898438 95.601562 C 159.898438 93.898438 159.898438 93.898438 161.699219 93.898438 Z M 169.898438 103.800781 C 170 99.5 166.398438 96.101562 161.5 95.699219 C 161.5 100.101562 165.699219 104 169.898438 103.800781 Z M 169.898438 103.800781 "/>
<path style=" stroke:none;fill-rule:nonzero;fill:rgb(1.176471%,28.627451%,14.509804%);fill-opacity:1;" d="M 205.199219 111.199219 C 203.300781 111.398438 201.601562 110.601562 200 109.300781 C 199.398438 108.800781 199.5 108.398438 199.800781 107.898438 C 201.300781 105.800781 205.398438 104.300781 207.898438 105.101562 C 209.300781 105.601562 210.601562 106.300781 211.898438 107 C 212.398438 107.300781 212.5 107.601562 212 108.199219 C 210.101562 110.398438 208.300781 111.300781 205.101562 111.300781 Z M 210 107.800781 C 208.199219 105.898438 202.898438 106.398438 201.699219 108.5 C 204 110.398438 208.101562 109.898438 210 107.800781 Z M 210 107.800781 "/>
<path style=" stroke:none;fill-rule:nonzero;fill:rgb(1.176471%,28.627451%,14.509804%);fill-opacity:1;" d="M 158.800781 111.300781 C 155.5 111.300781 153.398438 110.199219 151.699219 108.199219 C 151.199219 107.601562 151.398438 107.300781 151.898438 106.898438 C 154.398438 105 157.199219 104.101562 160.300781 105.5 C 161.601562 106.101562 162.800781 107.101562 163.898438 108 C 164.5 108.398438 164.300781 108.898438 163.800781 109.398438 C 162.101562 110.699219 160.300781 111.398438 158.800781 111.300781 Z M 162.101562 108.5 C 160.601562 106.300781 155.5 106 153.800781 107.800781 C 155.199219 109.601562 159.101562 110.601562 162.101562 108.5 Z M 162.101562 108.5 "/>
<path style=" stroke:none;fill-rule:nonzero;fill:rgb(1.176471%,28.627451%,14.509804%);fill-opacity:1;" d="M 185.398438 69.300781 C 185.398438 72.300781 184.199219 74.300781 182.300781 76 C 181.898438 76.398438 181.601562 76.398438 181.101562 76 C 177.699219 73.199219 177.101562 68.601562 180 65.101562 C 181.898438 62.800781 182.300781 62.898438 184.199219 65.300781 C 185.199219 66.601562 185.601562 68 185.601562 69.199219 Z M 181.5 74.300781 C 184.300781 72.5 184.601562 68 182.300781 65.800781 C 181.800781 65.398438 181.601562 65.5 181.199219 65.898438 C 179.101562 68.398438 178.800781 71.699219 181.5 74.300781 Z M 181.5 74.300781 "/>
<path style=" stroke:none;fill-rule:nonzero;fill:rgb(1.176471%,28.627451%,14.509804%);fill-opacity:1;" d="M 159.601562 91.699219 C 159.601562 93.898438 159.101562 94.199219 157.300781 93.800781 C 154.398438 93.101562 152.199219 91.398438 151.199219 88.5 C 150.800781 87.398438 150.800781 86.101562 150.800781 84.898438 C 150.800781 84.101562 151.398438 83.800781 152.101562 84 C 155.101562 84.5 158.101562 86.398438 159.101562 89.800781 C 159.300781 90.5 159.5 91.199219 159.5 91.601562 Z M 152.398438 86 C 151.800781 88.800781 155.5 92.5 157.898438 92 C 157.300781 88.5 155.101562 86.101562 152.398438 86 Z M 152.398438 86 "/>
<path style=" stroke:none;fill-rule:nonzero;fill:rgb(1.176471%,28.627451%,14.509804%);fill-opacity:1;" d="M 208.800781 102.398438 C 207.800781 102.199219 206.800781 101.898438 205.800781 101.699219 C 205 101.5 205 101 205.199219 100.398438 C 206 97.898438 209.199219 95.300781 211.898438 95.300781 C 213.300781 95.300781 214.800781 95.601562 216.199219 95.800781 C 217 95.898438 217.101562 96.5 216.800781 97.199219 C 215.699219 99.800781 213 102.398438 208.898438 102.398438 Z M 207.101562 100.398438 C 209.5 101.5 213.699219 100 214.898438 97.300781 C 212.601562 96 207.699219 98 207.101562 100.398438 Z M 207.101562 100.398438 "/>
<path style=" stroke:none;fill-rule:nonzero;fill:rgb(1.176471%,28.627451%,14.509804%);fill-opacity:1;" d="M 154.800781 102.398438 C 151.199219 102.300781 148.699219 100.601562 147.199219 97.5 C 146.601562 96.300781 146.699219 96.101562 148 95.699219 C 152 94.300781 156 96 157.898438 99.101562 C 158.199219 99.601562 158.5 100.101562 158.601562 100.699219 C 158.601562 101 158.398438 101.601562 158.101562 101.601562 C 157 101.898438 155.898438 102.101562 154.699219 102.398438 Z M 148.898438 97.199219 C 150 100 155 101.601562 156.699219 100.199219 C 154.898438 97.398438 151.699219 96.101562 148.898438 97.199219 Z M 148.898438 97.199219 "/>
<path style=" stroke:none;fill-rule:nonzero;fill:rgb(1.176471%,28.627451%,14.509804%);fill-opacity:1;" d="M 213 86.199219 C 213 89.601562 210.5 92.800781 207.199219 93.601562 C 207.199219 93.601562 207 93.601562 207 93.601562 C 204 94.601562 204 93.5 204.300781 91.199219 C 204.898438 87 207.898438 84.699219 211.601562 84.101562 C 212.300781 84 213 84.300781 212.898438 85.199219 C 212.898438 85.5 212.898438 85.898438 212.898438 86.199219 Z M 211.300781 86 C 211.199219 86 211.101562 86 211 86 C 208.5 86.300781 205.898438 89.101562 205.699219 91.601562 C 205.699219 92.300781 206.101562 92.300781 206.601562 92.199219 C 207.300781 92 207.898438 91.699219 208.5 91.300781 C 210.199219 90.398438 211.5 87.898438 211.300781 86.101562 Z M 211.300781 86 "/>
<path style=" stroke:none;fill-rule:nonzero;fill:rgb(1.176471%,28.627451%,14.509804%);fill-opacity:1;" d="M 193.101562 92 C 190.699219 92 190.5 91.601562 190.898438 89.800781 C 191.601562 86.800781 193.300781 84.800781 196.199219 83.800781 C 197.101562 83.5 198.199219 83.300781 199.199219 83.300781 C 200.5 83.300781 200.898438 83.800781 200.699219 85.199219 C 200.199219 88 198.601562 90.199219 196 91.300781 C 195 91.699219 193.800781 91.898438 193.199219 92 Z M 192.601562 90.300781 C 195.699219 90.699219 199.199219 87.398438 198.800781 85.101562 C 195.800781 84.800781 192.601562 87.5 192.601562 90.300781 Z M 192.601562 90.300781 "/>
<path style=" stroke:none;fill-rule:nonzero;fill:rgb(1.176471%,28.627451%,14.509804%);fill-opacity:1;" d="M 164.898438 83.898438 C 168.398438 84.101562 170.699219 86 172 89.101562 C 172.300781 89.898438 172.300781 90.800781 172.398438 91.601562 C 172.398438 92.5 171.601562 92.5 171 92.5 C 168.199219 92.699219 164.800781 90.699219 163.601562 88.101562 C 163.199219 87.300781 162.898438 86.398438 162.699219 85.5 C 162.398438 84.101562 162.699219 83.898438 164 83.800781 C 164.300781 83.800781 164.601562 83.800781 164.898438 83.800781 Z M 170.699219 90.601562 C 170.699219 87.601562 166.601562 84.898438 164.5 85.601562 C 164 87.898438 168.199219 91.5 170.699219 90.601562 Z M 170.699219 90.601562 "/>
<path style=" stroke:none;fill-rule:nonzero;fill:rgb(1.176471%,28.627451%,14.509804%);fill-opacity:1;" d="M 187.300781 83.199219 C 185.800781 83.199219 185.699219 83.199219 185.699219 81.601562 C 185.898438 77.800781 189.199219 75.398438 192.398438 75.398438 C 193.101562 75.398438 193.398438 75.601562 193.5 76.398438 C 193.699219 79.800781 190.699219 83.101562 187.300781 83.199219 Z M 191.601562 77.5 C 189.601562 77 187.300781 79.5 187.300781 81.601562 C 189.898438 81.199219 191.601562 79.601562 191.601562 77.5 Z M 191.601562 77.5 "/>
<path style=" stroke:none;fill-rule:nonzero;fill:rgb(1.176471%,28.627451%,14.509804%);fill-opacity:1;" d="M 177.699219 83.601562 C 174.601562 84.5 171.300781 82.300781 170.398438 79.699219 C 170.398438 79.5 170.300781 79.300781 170.300781 79.199219 C 170.300781 78.300781 170.300781 77.5 170.199219 76.601562 C 171.199219 76.601562 172.199219 76.398438 173 76.601562 C 176.199219 77.5 178.199219 80.101562 177.699219 83.601562 Z M 176.199219 82.101562 C 175.800781 79.601562 173.898438 78.101562 171.699219 78 C 171.398438 79.898438 173.898438 82.199219 176.199219 82.101562 Z M 176.199219 82.101562 "/>
<path style=" stroke:none;fill-rule:nonzero;fill:rgb(1.176471%,28.627451%,14.509804%);fill-opacity:1;" d="M 215.5 93.300781 C 214.898438 93.199219 214.199219 93 213.601562 92.898438 C 212.5 92.601562 212.601562 91.898438 213.101562 91.199219 C 214.5 88.699219 217.5 87.398438 220.300781 88.699219 C 220.898438 89 221.101562 89.300781 220.800781 90 C 219.800781 92 217.898438 93.300781 215.601562 93.398438 Z M 218.601562 90.101562 C 216.800781 89.699219 215.601562 90.101562 214.898438 91.398438 C 216 91.800781 217.601562 91.199219 218.601562 90.101562 Z M 218.601562 90.101562 "/>
<path style=" stroke:none;fill-rule:nonzero;fill:rgb(1.176471%,28.627451%,14.509804%);fill-opacity:1;" d="M 148.199219 93.300781 C 145.800781 93.199219 143.800781 91.898438 143 89.699219 C 143 89.5 143 88.898438 143.300781 88.699219 C 145.800781 87.101562 150.101562 88.699219 150.898438 91.601562 C 150.898438 91.898438 150.699219 92.5 150.398438 92.601562 C 149.699219 92.898438 148.898438 93 148.199219 93.199219 Z M 149 91.601562 C 148 90.101562 146.699219 89.601562 145.101562 90.199219 C 146.101562 91.398438 147.5 91.398438 149 91.601562 Z M 149 91.601562 "/>
<path style=" stroke:none;fill-rule:nonzero;fill:rgb(1.176471%,28.627451%,14.509804%);fill-opacity:1;" d="M 217.199219 102 C 218.5 101.898438 219.601562 102.398438 220.699219 103.300781 C 221.199219 103.699219 221.300781 104.101562 220.898438 104.601562 C 218.898438 106.800781 215.398438 107.300781 212.898438 105 C 212.5 104.601562 212.398438 104.300781 212.898438 103.800781 C 213.898438 102.601562 215.398438 101.898438 217.300781 101.898438 Z M 219 104.101562 C 217.5 103.5 216.199219 103.398438 214.898438 104.199219 C 215.898438 105 217.699219 104.898438 219 104.101562 Z M 219 104.101562 "/>
<path style=" stroke:none;fill-rule:nonzero;fill:rgb(1.176471%,28.627451%,14.509804%);fill-opacity:1;" d="M 147 106.699219 C 145.5 106.398438 144.101562 106 143 104.898438 C 142.5 104.398438 142.5 103.898438 143 103.398438 C 145.199219 101.398438 149.398438 101.699219 151 104.101562 C 151.101562 104.300781 151 104.800781 150.898438 105 C 149.898438 106.199219 148.398438 106.5 146.898438 106.699219 Z M 149 104.300781 C 147.601562 103.601562 146.300781 103.300781 144.898438 104.300781 C 146.199219 105.101562 148.101562 105.101562 149 104.300781 Z M 149 104.300781 "/>
<path style=" stroke:none;fill-rule:nonzero;fill:rgb(1.176471%,28.627451%,14.509804%);fill-opacity:1;" d="M 154.699219 77.699219 C 154.699219 75.398438 155.300781 75.101562 157.300781 76.101562 C 159.699219 77.398438 160.699219 79.800781 160 82.398438 C 160 82.699219 159.5 83 159.300781 83 C 156.398438 82.5 154.699219 80.199219 154.699219 77.699219 Z M 158.398438 80.800781 C 158.699219 79.398438 157.898438 78.101562 156.5 77.699219 C 156.199219 79.101562 157 80.398438 158.398438 80.800781 Z M 158.398438 80.800781 "/>
<path style=" stroke:none;fill-rule:nonzero;fill:rgb(1.176471%,28.627451%,14.509804%);fill-opacity:1;" d="M 209.101562 78.898438 C 209.101562 81.601562 207.199219 83.898438 204.800781 84.398438 C 204.5 84.398438 204 84.101562 203.898438 83.800781 C 203.101562 81.300781 204.101562 78.898438 206.398438 77.601562 C 206.898438 77.300781 207.5 77.101562 208.101562 77 C 208.398438 77 208.800781 77.199219 208.898438 77.5 C 209.101562 78 209.101562 78.5 209.199219 78.800781 Z M 205.101562 82.300781 C 206.601562 81.898438 207.601562 80.5 207.199219 79.101562 C 205.800781 79.601562 205.199219 80.5 205.101562 82.300781 Z M 205.101562 82.300781 "/>
<path style=" stroke:none;fill-rule:nonzero;fill:rgb(1.176471%,28.627451%,14.509804%);fill-opacity:1;" d="M 174.101562 74.601562 C 170.800781 74.601562 168.199219 71.199219 169.101562 68.199219 C 169.300781 67.5 169.699219 67.101562 170.5 67.398438 C 172.898438 68.101562 174.699219 70.398438 174.5 72.898438 C 174.5 73.5 174.199219 74.101562 174.101562 74.699219 Z M 172.898438 72.601562 C 172.800781 71 172.101562 69.898438 170.601562 69.199219 C 170.398438 70.898438 171.398438 72.398438 172.898438 72.601562 Z M 172.898438 72.601562 "/>
<path style=" stroke:none;fill-rule:nonzero;fill:rgb(1.176471%,28.627451%,14.509804%);fill-opacity:1;" d="M 165.699219 78.699219 C 162.699219 78.699219 160 75.699219 160.898438 72 C 161.101562 71.199219 161.699219 71.300781 162.398438 71.5 C 165.199219 72.398438 167.300781 75.699219 165.699219 78.699219 Z M 162.398438 73.300781 C 162.199219 74.898438 163 76.101562 164.398438 76.601562 C 164.601562 75 164.101562 74.101562 162.398438 73.300781 Z M 162.398438 73.300781 "/>
<path style=" stroke:none;fill-rule:nonzero;fill:rgb(1.176471%,28.627451%,14.509804%);fill-opacity:1;" d="M 195.800781 76.699219 C 195.800781 74 197.699219 71.601562 200 71.300781 C 200.800781 71.199219 201 71.398438 201.199219 72.199219 C 201.800781 75.300781 200 77.898438 197.101562 78.5 C 196.800781 78.5 196.300781 78.300781 196.199219 78 C 196 77.601562 196 77 195.898438 76.699219 Z M 199.601562 73.199219 C 198 73.800781 197.398438 74.898438 197.601562 76.601562 C 199.101562 75.898438 199.800781 74.898438 199.601562 73.199219 Z M 199.601562 73.199219 "/>
<path style=" stroke:none;fill-rule:nonzero;fill:rgb(1.176471%,28.627451%,14.509804%);fill-opacity:1;" d="M 188.300781 73.800781 C 186.300781 70.898438 188.699219 66.601562 192 66.300781 C 192.300781 66.300781 192.898438 66.898438 193 67.300781 C 193.398438 69.300781 192.699219 71 191.199219 72.300781 C 190.398438 73 189.300781 73.300781 188.300781 73.800781 Z M 189.101562 71.699219 C 190.699219 71.101562 191.601562 69.699219 191.398438 68.300781 C 189.898438 68.699219 188.898438 70.300781 189.101562 71.699219 Z M 189.101562 71.699219 "/>
<path style=" stroke:none;fill-rule:nonzero;fill:rgb(1.176471%,28.627451%,14.509804%);fill-opacity:1;" d="M 177.699219 98.398438 C 177.699219 96.699219 178.300781 95.398438 179.300781 94.300781 C 181 92.5 183.699219 92.601562 185.199219 94.601562 C 186.699219 96.699219 186.898438 99 185.601562 101.300781 C 184.800781 102.800781 183.101562 103.699219 181.601562 103.5 C 179.699219 103.199219 178.601562 101.898438 178 100.199219 C 177.800781 99.601562 177.699219 98.898438 177.699219 98.5 Z M 185.398438 98.199219 C 185.101562 97.398438 185 96.5 184.601562 95.800781 C 183.699219 94.199219 181.898438 93.601562 180.800781 94.601562 C 179.601562 95.699219 178.898438 97 179.101562 98.699219 C 179.300781 101.199219 181.199219 102.699219 183.101562 102 C 184.300781 101.601562 185.300781 99.898438 185.398438 98.199219 Z M 185.398438 98.199219 "/>
</g>
</svg>
