<svg id="Layer_1" viewBox="0 0 64 64" xmlns="http://www.w3.org/2000/svg" data-name="Layer 1"><path d="m35.51 11.111a10.1 10.1 0 0 1 3.4 2.566 10.378 10.378 0 0 1 3.59-2.453 8.492 8.492 0 0 0 -.221-2.51 8.251 8.251 0 0 0 -5.129-5.714 8.26 8.26 0 0 0 -1.85 7.451c.056.229.135.443.21.66z"/><path d="m31.925 43.348a8.265 8.265 0 0 0 -3.183 7.005 8.217 8.217 0 0 0 10.758-8.307 8.247 8.247 0 0 0 -7.575 1.302z"/><path d="m28.335 44.328a9.642 9.642 0 0 1 4.2-3.71 8.443 8.443 0 0 0 -.2-2.958c-.025-.1-.043-.173-.067-.239a7.878 7.878 0 0 0 -.652-1.62c-.013-.026-.026-.053-.038-.079a8.417 8.417 0 0 0 -3.1-3.279 8.937 8.937 0 0 0 -1.517-.715 8.571 8.571 0 0 0 -1.916 7.772 8.39 8.39 0 0 0 3.29 4.828z"/><path d="m32.572 20.94a10.6 10.6 0 0 1 4.03 2.871 10.35 10.35 0 0 1 .775-8.051c.083-.147.17-.268.254-.4a8.108 8.108 0 0 0 -3.348-2.586 8.2 8.2 0 0 0 -1.449-.448 8.262 8.262 0 0 0 -.743 7.657 7.752 7.752 0 0 0 .481.957z"/><path d="m29.818 30.9a10.434 10.434 0 0 1 3.424 3.654 9.992 9.992 0 0 1 1.315-1.754l.088-.092a3.432 3.432 0 0 1 .334-.314 9.616 9.616 0 0 1 2.159-1.578 8.276 8.276 0 0 0 -.6-3.275c-.1-.246-.212-.476-.323-.7a6.522 6.522 0 0 0 -.409-.717l-.036-.062a8.561 8.561 0 0 0 -4.247-3.357 8 8 0 0 0 -1.114-.319 8.572 8.572 0 0 0 -.843 7.957c.072.203.163.38.252.557z"/><path d="m41.3 39.12a8.118 8.118 0 0 0 2.11-6.926c-.027-.169-.057-.333-.092-.489a8.291 8.291 0 0 0 -4.743.668 8.056 8.056 0 0 0 -2.243 1.548 2.339 2.339 0 0 0 -.208.2l-.1.1a7.884 7.884 0 0 0 -1.424 2.125 7.026 7.026 0 0 0 -.307.746l.011.038a10.67 10.67 0 0 1 .315 2.758 10.279 10.279 0 0 1 5.519.244 8.631 8.631 0 0 0 1.162-1.012z"/><path d="m39.765 15.8c-.018.033-.038.065-.059.1-.188.268-.373.546-.541.844a7.916 7.916 0 0 0 -.393.834 8.176 8.176 0 0 0 -.16 5.82c.146-.106.29-.215.443-.312l.016-.011c.024-.015.045-.034.069-.048l.057-.033a10.2 10.2 0 0 1 5.684-1.6 8.138 8.138 0 0 0 -.215-8.7 9.04 9.04 0 0 0 -.894.237 8.3 8.3 0 0 0 -4.007 2.869z"/><path d="m44.558 29.906a8.26 8.26 0 0 0 .365-6.484 8.092 8.092 0 0 0 -4.679 1.321.932.932 0 0 1 -.1.057 6.48 6.48 0 0 0 -1.194.973 4.658 4.658 0 0 0 -.595.667c-.022.025-.033.041-.053.063.042.094.085.186.123.282a10.309 10.309 0 0 1 .727 3.2 10.284 10.284 0 0 1 5.21-.154.984.984 0 0 1 .196.075z"/><path d="m17.886 62a.994.994 0 0 0 .572-.173c5.986-4.018 8.76-7.812 9.78-9.454a10.951 10.951 0 0 1 -2.132-.459 32.58 32.58 0 0 1 -8.791 8.22 1.018 1.018 0 0 0 -.275 1.417 1.031 1.031 0 0 0 .846.449z"/></svg>